<?xml version="1.0" encoding="utf-8"?>
<!-- Generator: Adobe Illustrator 21.0.0, SVG Export Plug-In . SVG Version: 6.00 Build 0)  -->
<svg version="1.1" id="Layer_1" xmlns="http://www.w3.org/2000/svg" xmlns:xlink="http://www.w3.org/1999/xlink" x="0px" y="0px"
	 viewBox="0 0 165 165" style="enable-background:new 0 0 165 165;width:24px;" xml:space="preserve">
<style type="text/css">
	.st0{fill:#ce1936;}
</style>
<path fill="#fff" d="M143.2,83.1C130.9,98,117,110.6,98.4,117c-11.7,4-23.3,3.4-34.7-1.1c-5.4-2.1-4-2.3-8.3,1.8c-2.3,2.2-4.6,4.5-6.8,6.8
	c-1,1-2.1,1.1-3.1,0.2c-1.9-1.8-3.8-3.6-5.6-5.5c-1-1-0.9-2,0.1-3c4.2-4.4,8.3-8.9,12.6-13.2c20.1-20,40.3-40,60.5-60
	c1-1,2.2-1.9,3.2-2.9c0.8-0.8,1.6-0.8,2.5-0.3c2.5,1.4,4.4,3.3,5.9,5.7c0.7,1.1,0.3,2.1-0.5,2.9c-2.1,2.3-4.3,4.6-6.5,6.9
	c-1.9,1.9-1.9,2,0.4,3.5c9.5,6,17.3,13.9,24,22.8C142.4,82,142.7,82.5,143.2,83.1z M67,106.2c9.1,6.5,25.6,6.7,35.8-4.6
	c9.8-10.8,8.3-26.5,2.6-33.8c-2.3,2.3-4.6,4.6-6.9,6.9c-0.9,0.8-1.1,1.5-0.7,2.7c1.7,5.4,1.1,10.6-2.2,15.2
	c-4.2,5.9-11.8,8.2-19,5.9c-0.6-0.2-1.6-0.2-1.9,0.1C72.1,101.1,69.6,103.6,67,106.2z"/>
<path fill="#fff" d="M21.5,83C28.6,73,37,64.5,47.1,57.8c8.3-5.6,17.3-9.4,27.3-10.8c7.3-1,14.6-0.6,21.7,1.3c0.2,0,0.3,0.2,0.3,0.2
	c-2.2,2.3-4.4,4.7-6.6,7c-0.3,0.3-1,0.2-1.4,0.1c-13.6-2.8-26.6,3.6-31.9,15.8C54,77,53.5,83,54.8,89.1c0.1,0.5,0.1,1.2-0.2,1.4
	c-4.4,4.2-8.8,8.4-13.4,12.7C34.1,97.6,27.4,90.8,21.5,83z"/>
<path class="st0" d="M67,106.2c2.6-2.6,5-5.1,7.6-7.5c0.4-0.4,1.4-0.3,1.9-0.1c7.2,2.3,14.8-0.1,19-5.9c3.3-4.7,3.9-9.8,2.2-15.2
	c-0.4-1.2-0.2-1.9,0.7-2.7c2.3-2.2,4.6-4.6,6.9-6.9c5.7,7.3,7.2,23-2.6,33.8C92.6,112.8,76.1,112.6,67,106.2z"/>
</svg>
