<?xml version="1.0" ?><!DOCTYPE svg  PUBLIC '-//W3C//DTD SVG 1.1//EN'  'http://www.w3.org/Graphics/SVG/1.1/DTD/svg11.dtd'><svg enable-background="new 0 0 24 24" height="24px" id="Layer_1" version="1.1" viewBox="0 0 24 24" width="24px" xml:space="preserve" xmlns="http://www.w3.org/2000/svg" xmlns:xlink="http://www.w3.org/1999/xlink"><path d="M23,12h-4c0-3.9-3.1-7-7-7V3h4V0h-4h-1v5.1C7.6,5.6,5,8.5,5,12H1c-0.6,0-1,0.4-1,1v11h24V13C24,12.4,23.6,12,23,12z M12,1h3  v1h-3V1z M12,7c2.8,0,5,2.2,5,5h-0.1H7.1H7C7,9.2,9.2,7,12,7z M7,22H5v-4c0-0.6,0.4-1,1-1s1,0.4,1,1V22z M10,22H8v-4  c0-0.6,0.4-1,1-1s1,0.4,1,1V22z M13,22h-2v-4c0-0.6,0.4-1,1-1s1,0.4,1,1V22z M16,22h-2v-4c0-0.6,0.4-1,1-1s1,0.4,1,1V22z M19,22h-2  v-4c0-0.6,0.4-1,1-1s1,0.4,1,1V22z M22,22h-2v-4c0-1.1-0.9-2-2-2c-0.6,0-1.1,0.3-1.5,0.7C16.1,16.3,15.6,16,15,16s-1.1,0.3-1.5,0.7  C13.1,16.3,12.6,16,12,16s-1.1,0.3-1.5,0.7C10.1,16.3,9.6,16,9,16s-1.1,0.3-1.5,0.7C7.1,16.3,6.6,16,6,16c-1.1,0-2,0.9-2,2v4H2v-8  h20V22z" fill="#fff"/></svg>