<?xml version="1.0" encoding="utf-8"?>
<!-- Generator: Adobe Illustrator 21.0.0, SVG Export Plug-In . SVG Version: 6.00 Build 0)  -->
<svg version="1.1" id="Layer_1" xmlns="http://www.w3.org/2000/svg" xmlns:xlink="http://www.w3.org/1999/xlink" x="0px" y="0px"
	 viewBox="0 0 165 165" style="enable-background:new 0 0 165 165;width:24px;" xml:space="preserve">
<style type="text/css">
	.st0{fill:#ce1936;}
</style>
<path fill="#fff" d="M27.5,79.1c3.3-4.8,7.2-9.2,11.4-13.3c8.3-7.9,17.5-14.3,28.6-17.6c14.9-4.4,29-2,42.4,5.7c10.8,6.2,19.6,14.6,26.9,24.6
	c0.1,0.2,0.3,0.4,0.5,0.7c-1.3,1.6-2.7,3.3-4.1,4.8c-7.8,8.8-16.6,16.3-27,21.8c-17,8.9-33.8,8.3-50.3-1.3
	c-11-6.4-20.1-14.9-27.9-24.8C27.8,79.5,27.7,79.3,27.5,79.1z M107.3,78.9c0.1-13.9-10.9-25.2-24.7-25.3
	C68.2,53.5,57,64.4,56.9,78.7c-0.1,13.8,11,25.2,24.7,25.3C96.1,104.1,107.2,93.3,107.3,78.9z"/>
<path class="st0" d="M107.3,78.9c-0.1,14.4-11.2,25.2-25.7,25.1c-13.7-0.1-24.8-11.4-24.7-25.3C57,64.4,68.2,53.5,82.7,53.6
	C96.4,53.7,107.4,65,107.3,78.9z M97.5,79.1c0-8.4-6.4-15-14.8-15c-8.6-0.1-15.2,6.4-15.2,14.9c0,8.4,6.5,15,14.8,15.1
	C91,94.2,97.4,87.8,97.5,79.1z"/>
<path fill="#fff" d="M97.5,79.1c0,8.7-6.5,15-15.2,15c-8.3,0-14.8-6.7-14.8-15.1c0.1-8.5,6.6-15,15.2-14.9C91.1,64.2,97.5,70.7,97.5,79.1z"/>
</svg>
