<?xml version="1.0" standalone="no"?>
<!DOCTYPE svg PUBLIC "-//W3C//DTD SVG 1.1//EN" "http://www.w3.org/Graphics/SVG/1.1/DTD/svg11.dtd" >
<svg xmlns="http://www.w3.org/2000/svg">
<metadata>Generated by IcoMoon</metadata>
<defs>
<font id="mymoolya-icons" horiz-adv-x="1024">
<font-face units-per-em="1024" ascent="960" descent="-64" />
<missing-glyph horiz-adv-x="1024" />
<glyph unicode="&#x20;" horiz-adv-x="512" d="" />
<glyph unicode="&#xe900;" glyph-name="account" d="M938.249 780.392l-140.717 140.787c-51.824 51.761-135.865 51.761-187.694 0l-93.815-93.883c-51.831-51.765-51.831-135.795 0-187.628l46.9-46.911-516.040-516.042 140.717-140.717 41.923 41.923-46.911 46.904 41.984 41.975 46.911-46.904 41.984 41.993-93.817 93.802 390.161 390.166 46.907-46.911c51.824-51.831 135.856-51.831 187.683 0l93.822 93.822c51.827 51.829 51.827 135.859 0.002 187.624zM797.529 545.859c-25.913-25.859-67.957-25.92-93.892 0l-140.717 140.711c-25.841 25.924-25.841 68.031 0 93.822l93.824 93.815c25.841 25.913 67.957 25.913 93.811 0l140.779-140.726c25.861-25.852 25.861-67.898 0-93.811l-93.804-93.811z" />
<glyph unicode="&#xe901;" glyph-name="achievements" d="M733.866 362.986c47.786 0 85.334 37.546 85.334 85.334s-37.546 85.334-85.334 85.334-85.334-37.546-85.334-85.334 37.548-85.334 85.334-85.334zM733.866 499.52c29.014 0 51.2-22.186 51.2-51.2s-22.186-51.2-51.2-51.2-51.2 22.186-51.2 51.2 22.188 51.2 51.2 51.2zM1006.934 874.986h-989.868c-10.24 0-17.066-6.826-17.066-17.066v-682.666c0-10.24 6.826-17.066 17.066-17.066h614.4v-119.466c0-6.826 5.12-13.654 11.946-17.066 6.826-1.706 13.654 0 18.774 5.12l71.68 87.040 71.68-85.334c3.414-5.12 8.534-6.826 13.654-6.826 1.706 0 3.414 0 5.12 1.706 6.826 1.706 11.946 8.534 11.946 15.36v119.466h170.666c10.24 0 17.066 6.826 17.066 17.066v682.666c0.002 10.24-6.824 17.066-17.064 17.066zM616.106 398.826c-3.414 11.946-13.654 20.48-25.6 25.6l-37.546 13.654c-6.826 1.706-6.826 8.534-6.826 10.24s1.706 8.534 10.24 13.654l37.546 13.654c11.946 5.12 20.48 13.654 25.6 25.6s3.414 23.894-1.706 35.84l-17.066 34.134c-3.414 5.12 0 10.24 1.706 11.946s5.12 5.12 11.946 1.706l34.134-17.066c10.24-5.12 23.894-6.826 35.84-1.706 11.946 3.414 20.48 13.654 25.6 25.6l13.654 37.546c1.706 6.826 8.534 6.826 10.24 6.826s8.534 0 13.654-10.24l13.654-37.546c5.12-11.946 13.654-20.48 25.6-25.6s23.894-3.414 35.84 1.706l34.134 17.066c5.12 3.414 10.24 0 11.946-1.706s5.12-5.12 1.706-11.946l-17.066-34.134c-5.12-10.24-6.826-23.894-1.706-35.84 3.414-11.946 13.654-20.48 25.6-25.6l37.546-13.654c6.826-3.414 6.826-8.534 6.826-10.24s0-6.826-10.24-11.946l-37.546-13.654c-11.946-5.12-20.48-13.654-25.6-25.6s-3.414-23.894 1.706-35.84l17.066-34.134c3.414-5.12 0-10.24-1.706-11.946s-5.12-5.12-11.946-1.706l-34.132 17.068c-10.24 5.12-23.894 6.826-35.84 1.706-0.746-0.214-1.48-0.454-2.2-0.718-6.48-2.388-11.88-6.836-16.2-12.432-1.44-1.864-2.76-3.858-3.96-5.944s-2.28-4.266-3.24-6.506l-13.654-37.546c0 0 0 0 0 0-3.414-6.826-8.534-6.826-10.24-6.826-0.96 0-3.54 0-5.918 1.214-0.528 0.27-1.046 0.6-1.534 1.004-0.244 0.202-0.48 0.422-0.708 0.662-0.906 0.96-1.654 2.24-2.080 3.946l-13.654 37.546c-0.64 1.494-1.334 2.934-2.080 4.32-5.226 9.706-13.066 16.8-23.52 21.28-3.948 1.692-7.898 2.626-11.848 2.95-1.834 0.282-3.614 0.464-5.22 0.464-6.826 0-13.654-1.706-22.186-3.414l-34.134-17.066c-5.12-3.414-10.24 0-11.946 1.706s-5.12 5.12-1.706 11.946l17.066 34.134c5.118 10.238 6.824 23.892 1.704 35.838zM802.134 84.8l-54.614 66.56c-3.414 5.12-8.534 6.826-13.654 6.826s-10.24-1.706-13.654-5.12l-54.614-66.56v215.040c0.382 0.382 0.766 0.576 1.148 0.672 1.638-0.192 3.054-0.672 3.972-0.672 1.706-1.706 5.12-3.414 6.826-6.826l13.654-39.254c6.826-17.066 23.894-29.014 42.666-29.014s35.84 11.946 42.666 30.72l13.654 37.546c1.706 5.12 5.12 6.826 6.826 6.826 0 0 1.706 0 5.12 0v-216.744zM989.866 192.32h-153.6v93.866l3.414-1.706c17.066-8.534 37.546-5.12 51.2 8.534s17.066 34.134 8.534 51.2l-17.066 34.134c-1.706 3.414 0 6.826 0 8.534 1.706 1.706 3.414 5.12 6.826 6.826l37.546 13.654c17.066 6.826 29.014 23.894 29.014 42.666s-11.946 35.84-29.014 42.666l-37.546 13.654c-5.12 1.706-5.12 5.12-6.826 6.826s-1.706 5.12 0 8.534l17.066 34.134c8.534 17.066 5.12 37.546-8.534 51.2s-34.134 17.066-51.2 8.534l-34.134-17.066c-3.414-1.706-6.826 0-8.534 0-1.706 1.706-5.12 3.414-6.826 6.826l-13.654 37.546c-6.826 17.066-23.894 29.014-42.666 29.014s-35.84-11.946-42.666-29.014l-13.654-37.546c-1.706-5.12-5.12-6.826-6.826-6.826-1.706-1.706-5.12-1.706-8.534 0l-34.134 17.066c-17.066 8.534-37.546 5.12-51.2-8.534s-17.066-34.134-8.534-51.2l17.066-34.134c1.706-3.414 1.706-6.826 0-8.534-1.706-1.706-3.414-5.12-6.826-6.826l-37.546-13.654c-17.066-6.828-29.012-23.894-29.012-42.668s11.946-35.84 29.014-42.666l37.546-13.654c5.12-1.706 6.826-5.12 6.826-6.826 1.706-1.706 1.706-5.12 0-8.534l-17.066-34.134c-8.534-17.066-5.12-37.546 8.534-51.2s34.134-17.066 51.2-8.534l3.414 1.706v-93.866h-597.334v648.536h955.734v-648.534zM119.466 601.92h375.466c10.24 0 17.066 6.826 17.066 17.066s-6.826 17.066-17.066 17.066h-375.466c-10.24 0-17.066-6.826-17.066-17.066s6.826-17.066 17.066-17.066zM119.466 704.32h477.866c10.24 0 17.066 6.826 17.066 17.066s-6.826 17.066-17.066 17.066h-477.866c-10.24 0-17.066-6.826-17.066-17.066s6.826-17.066 17.066-17.066zM119.466 499.52h307.2c10.24 0 17.066 6.826 17.066 17.066s-6.826 17.066-17.066 17.066h-307.2c-10.24 0-17.066-6.826-17.066-17.066s6.826-17.066 17.066-17.066zM119.466 397.12h221.866c10.24 0 17.066 6.826 17.066 17.066s-6.826 17.066-17.066 17.066h-221.866c-10.24 0-17.066-6.826-17.066-17.066s6.826-17.066 17.066-17.066zM119.466 277.654h187.734c10.24 0 17.066 6.826 17.066 17.066s-6.826 17.066-17.066 17.066h-187.734c-10.24 0-17.066-6.826-17.066-17.066s6.826-17.066 17.066-17.066z" />
<glyph unicode="&#xe902;" glyph-name="achievements_2" d="M689.2 568.4c0 97.6-79.8 177-178.2 177-98.2 0-178.2-79.4-178.2-177s79.8-177 178.2-177c98.2-0.2 178.2 79.2 178.2 177zM511 430c-75.8 0-137.2 61-137.2 136.4s61.4 136.4 137.2 136.4c75.8 0 137.2-61 137.2-136.4s-61.4-136.4-137.2-136.4zM908.2 84l-157.6 271.8 95 20.6-35.8 111.8 87.2 79-87.2 79 35.8 111.8-115.4 25-25.2 115-112.6-35.6-79.4 86.6-79.6-86.8-112.4 35.8-25.2-114.6-115.4-25 35.8-111.8-87.2-79 87.2-79-35.8-111.8 92.2-20-156.8-270.8c-10.2-18.4 5.6-34.4 20.4-30.6l94.2 18.4 30.8-89.6c4.8-15.2 27.2-21.4 36.8-4l157 268.8 58-63.4 56.2 61.2 154.8-266.6c11-18.2 35-11.2 39 2l30.8 89.6 94.2-18.4c17-4.8 32.2 11.2 20.2 30.6zM283.6 39.2l-22.6 63c-2 8.2-10.2 14.2-18.4 14.2-2 0-2 0-4 0l-67.6-12.2 129.8 224.2 20.2-91.8 94.4 29.8-131.8-227.2zM446.2 319.2l-94.6-30-21.2 96.4-97 21 30.2 94-73.6 66.8 73.4 66.4-30.2 94 97 21 21.2 96.4 94.6-30 66.8 73 67.2-72.8 94.6 30 21.2-96.4 97-21-30.2-94 73.4-66.4-73.4-66.4 30.2-94-97-21-21.2-96.4-94.6 30-66.8-73-67 72.4zM783.4 116.4c-10.2 0-18.4-4-22.6-14.2l-22.6-63-132.6 229 99.4-31.4 19 86 127-218.4-67.6 12z" />
<glyph unicode="&#xe903;" glyph-name="add-Event" d="M938.666 351.536v437.798c0 47.062-38.292 85.334-85.334 85.334h-128v64c0.002 11.79-9.54 21.332-21.332 21.332s-21.334-9.542-21.334-21.334v-64h-384v64c0 11.792-9.54 21.334-21.332 21.334s-21.334-9.542-21.334-21.334v-64h-170.666c-47.042 0-85.334-38.27-85.334-85.332v-682.666c0-47.062 38.292-85.334 85.334-85.334h523.126c43.084-52.086 108.172-85.334 180.874-85.334 129.374 0 234.666 105.27 234.666 234.666 0 72.708-33.252 137.794-85.334 180.87zM42.666 789.334c0 23.52 19.126 42.666 42.668 42.666h170.666v-42.666c-23.542 0-42.666-19.146-42.666-42.666s19.126-42.666 42.666-42.666 42.666 19.146 42.666 42.666v85.332h384v-42.666c-23.542 0-42.666-19.146-42.666-42.666s19.126-42.666 42.666-42.666c23.542 0 42.666 19.146 42.666 42.666v85.332h128c23.544 0 42.668-19.146 42.668-42.666v-128h-853.334v128zM85.334 64c-23.542 0-42.666 19.146-42.666 42.666v512h853.332v-239.242c-32.046 16.446-68.242 25.908-106.666 25.908-129.376 0-234.666-105.27-234.666-234.666 0-38.424 9.466-74.62 25.908-106.666h-495.242zM789.334-21.334c-105.876 0-192 86.126-192 192s86.126 192 192 192 192-86.126 192-192-86.126-192-192-192zM874.666 192h-64v64c0 11.792-9.542 21.334-21.334 21.334s-21.332-9.542-21.332-21.334v-64h-64c-11.792 0-21.334-9.542-21.334-21.334s9.542-21.334 21.334-21.334h64v-64c0-11.792 9.542-21.334 21.334-21.334s21.334 9.542 21.334 21.334v64h64c11.792 0 21.334 9.542 21.334 21.334s-9.544 21.334-21.336 21.334z" />
<glyph unicode="&#xe904;" glyph-name="add-Event_2" d="M902.508 361.585v511.636c0 9.598-7.775 17.356-17.356 17.356h-86.78v52.068c0 9.598-7.775 17.356-17.356 17.356h-121.492c-9.58 0-17.356-7.758-17.356-17.356v-52.068h-381.831v52.068c0 9.598-7.775 17.356-17.356 17.356h-121.492c-9.58 0-17.356-7.758-17.356-17.356v-52.068h-86.78c-9.58 0-17.356-7.758-17.356-17.356v-885.153c0-9.598 7.775-17.356 17.356-17.356h661.33c34.747-21.868 75.707-34.712 119.687-34.712 124.407 0 225.627 101.22 225.627 225.627 0 86.832-49.395 162.261-121.492 199.958zM676.881 925.288h86.78v-104.136h-86.78v104.136zM138.847 925.288h86.78v-104.136h-86.78v104.136zM34.712 855.864h69.424v-52.068c0-9.598 7.775-17.356 17.356-17.356h121.492c9.58 0 17.356 7.758 17.356 17.356v52.068h381.831v-52.068c0-9.598 7.775-17.356 17.356-17.356h121.492c9.58 0 17.356 7.758 17.356 17.356v52.068h69.424v-138.847h-833.085v138.847zM34.712 5.424v676.881h833.085v-306.089c-3.402 1.093-6.873 1.979-10.344 2.933-3.211 0.885-6.422 1.753-9.667 2.499-2.933 0.66-5.901 1.232-8.869 1.77-4.235 0.781-8.487 1.423-12.757 1.961-2.378 0.295-4.738 0.625-7.133 0.85-6.838 0.607-13.729 1.024-20.654 1.024-5.866 0-11.611-0.434-17.356-0.885v209.156h-659.525v-503.322h462.293c0.503-1.527 1.128-3.003 1.649-4.513 1.458-4.217 2.898-8.452 4.617-12.566 0.955-2.308 2.083-4.513 3.124-6.769 1.996-4.408 4.027-8.799 6.3-13.069 1.007-1.857 2.135-3.645 3.193-5.484 2.569-4.495 5.172-8.938 8.053-13.243 1.059-1.579 2.222-3.072 3.315-4.634 3.055-4.339 6.179-8.643 9.563-12.774 1.25-1.527 2.603-2.951 3.888-4.443 2.69-3.124 5.259-6.318 8.123-9.303h-600.897zM699.67 364.206c-1.874-0.903-3.784-1.753-5.623-2.708-3.263-1.701-6.422-3.575-9.58-5.432-2.76-1.614-5.519-3.263-8.209-4.981-2.725-1.77-5.38-3.575-8.018-5.45-3.003-2.117-5.918-4.339-8.817-6.595-2.326-1.822-4.651-3.627-6.89-5.554-3.037-2.569-5.936-5.294-8.834-8.018-1.996-1.892-4.061-3.714-5.988-5.658-3.141-3.193-6.109-6.578-9.060-9.962-1.25-1.441-2.621-2.76-3.853-4.235v98.998h121.492v-23.639c-0.295-0.069-0.573-0.174-0.85-0.243-15.985-3.87-31.293-9.442-45.768-16.523zM582.639 227.597c-0.607-1.996-1.007-4.044-1.562-6.057-1.388-5.033-2.812-10.066-3.853-15.256-0.816-4.009-1.267-8.105-1.857-12.167-0.469-3.28-1.128-6.508-1.475-9.841-0.746-7.48-1.145-15.048-1.145-22.649 0-6.265 0.347-12.6 0.92-18.953 0.104-1.163 0.104-2.343 0.226-3.506 0.278-2.812 0.833-5.537 1.215-8.313 0 0 0-0.017 0-0.017 0.191-1.319 0.26-2.621 0.469-3.922h-106.965v121.492l121.492-0.121c-0.174-0.417-0.278-0.85-0.451-1.267-2.603-6.335-4.981-12.809-7.012-19.421zM156.203 248.407h121.492v-121.492h-121.492v121.492zM156.203 404.61h121.492v-121.492h-121.492v121.492zM746.305 439.322h-121.492v121.492h121.492v-121.492zM590.102 439.322h-121.492v121.492h121.492v-121.492zM590.102 283.119h-121.492v121.492h121.492v-121.492zM312.407 404.61h121.492v-121.492h-121.492v121.492zM433.898 439.322h-121.492v121.492h121.492v-121.492zM277.695 439.322h-121.492v121.492h121.492v-121.492zM312.407 248.407h121.492v-121.492h-121.492v121.492zM798.373-29.288c-39.19 0-75.655 11.906-105.993 32.247-5.918 3.957-11.507 8.261-16.87 12.774-1.874 1.597-3.645 3.298-5.45 4.964-3.419 3.107-6.734 6.3-9.893 9.615-2.031 2.135-3.992 4.304-5.918 6.508-2.846 3.28-5.519 6.665-8.123 10.119-1.666 2.204-3.384 4.339-4.964 6.613-3.836 5.571-7.446 11.299-10.674 17.234-0.746 1.388-1.336 2.846-2.048 4.252-2.534 4.964-4.894 9.997-6.994 15.169-0.903 2.256-1.684 4.565-2.517 6.856-1.631 4.547-3.124 9.164-4.426 13.833-0.295 1.076-0.555 2.152-0.833 3.228-1.961 7.637-3.402 15.221-4.426 22.771-0.069 0.538-0.174 1.076-0.243 1.631-1.007 7.793-1.545 15.516-1.545 23.101 0 6.578 0.33 13.104 1.007 19.577 0.052 0.538 0.191 1.059 0.243 1.597 0.66 5.918 1.527 11.819 2.742 17.634 0.121 0.555 0.312 1.093 0.434 1.649 1.25 5.762 2.725 11.49 4.513 17.148 0.208 0.66 0.503 1.302 0.712 1.961 1.788 5.415 3.766 10.795 6.057 16.072 2.152 4.964 4.478 9.841 7.029 14.579l1.718 2.968c0.694 1.25 1.51 2.43 2.239 3.662 3.020 5.085 6.248 10.014 9.667 14.77 0.85 1.18 1.736 2.343 2.621 3.506 3.124 4.131 6.422 8.105 9.858 11.941 1.198 1.336 2.395 2.69 3.627 3.992 3.402 3.61 6.977 7.029 10.639 10.344 1.302 1.18 2.569 2.395 3.905 3.541 4.304 3.679 8.765 7.133 13.364 10.414 0.729 0.521 1.423 1.093 2.152 1.614 22.649 15.655 48.666 26.381 76.574 31.067l0.364 0.052c10.24 1.718 20.706 2.829 31.449 2.829 6.751 0 13.468-0.364 20.133-1.093 1.041-0.104 2.048-0.347 3.089-0.469 5.693-0.712 11.368-1.562 16.974-2.777 0.694-0.156 1.354-0.364 2.031-0.521 5.97-1.371 11.889-2.968 17.738-4.929 0.399-0.139 0.781-0.295 1.18-0.434 5.988-2.048 11.889-4.391 17.738-7.047 65.987-30.095 112.033-96.534 112.033-173.646 0-105.264-85.652-190.915-190.915-190.915zM902.508 177.595h-86.78v86.78c0 9.598-7.775 17.356-17.356 17.356s-17.356-7.758-17.356-17.356v-86.78h-86.78c-9.58 0-17.356-7.758-17.356-17.356s7.775-17.356 17.356-17.356h86.78v-86.78c0-9.598 7.775-17.356 17.356-17.356s17.356 7.758 17.356 17.356v86.78h86.78c9.58 0 17.356 7.758 17.356 17.356s-7.775 17.356-17.356 17.356z" />
<glyph unicode="&#xe905;" glyph-name="add_NewProfile" d="M802.133 405.333c-12.425 0-24.542-1.28-36.403-3.26 19.934 28.894 36.096 60.774 47.889 95.113 24.081 11.059 39.714 34.867 39.714 61.747v68.267c0 16.435-6.144 32.358-17.067 44.8v90.778c0.956 9.387 4.71 65.263-35.703 111.36-35.055 39.987-91.938 60.262-169.097 60.262s-134.042-20.275-169.097-60.245c-24.491-27.938-32.734-59.409-35.226-82.005-29.252 15.121-63.727 22.784-102.878 22.784-177.306 0-187.631-151.125-187.733-153.6v-78.148c-11.059-12.049-17.067-25.958-17.067-39.765v-58.948c0-18.415 8.243-35.584 22.374-47.189 14.080-53.077 48.708-93.184 62.191-107.264v-46.814c0-13.431-7.305-25.754-19.985-32.683l-113.545-71.219c-43.486-23.723-70.502-69.239-70.502-118.767v-64.802h684.442c34.167-21.504 74.445-34.133 117.692-34.133 122.334 0 221.867 99.533 221.867 221.867s-99.533 221.867-221.867 221.867zM238.933 68.062v-38.195h-204.8v30.669c0 37.035 20.207 71.066 53.606 89.31l113.527 71.219c22.75 12.407 36.881 36.198 36.881 62.14v61.286l-5.427 5.069c-0.444 0.41-45.79 43.247-59.187 101.632l-1.553 6.758-5.837 3.755c-7.851 5.086-12.544 13.602-12.544 22.767v58.948c0 6.144 4.181 13.449 11.452 20.036l5.615 5.069-0.034 91.819c0.307 4.898 9.199 120.457 153.634 120.457 40.841 0 75.23-9.438 102.4-28.058v-80.742c-10.923-12.442-17.067-28.365-17.067-44.8v-68.267c0-5.188 0.597-10.291 1.724-15.241 0.461-1.98 1.382-3.789 2.014-5.7 0.939-2.867 1.69-5.82 3.004-8.533 0.017-0.034 0.034-0.051 0.051-0.085 4.369-9.011 10.735-17.067 18.756-23.501 0.085-0.324 0.188-0.614 0.273-0.922 1.024-3.908 2.099-7.799 3.26-11.605l1.382-4.454c0.239-0.785 0.529-1.587 0.785-2.372 0.597-1.843 1.178-3.686 1.792-5.495 1.024-2.987 2.099-6.059 3.345-9.438 0.529-1.417 1.109-2.662 1.655-4.045 1.399-3.567 2.799-7.014 4.267-10.428 0.358-0.819 0.666-1.707 1.024-2.509l0.956-2.15c0.444-0.99 0.905-1.877 1.348-2.85 1.673-3.652 3.311-7.185 5.018-10.615 0.273-0.546 0.529-1.143 0.802-1.69 1.075-2.133 2.15-4.147 3.226-6.195 1.843-3.516 3.652-6.827 5.461-10.035 0.887-1.57 1.758-3.106 2.628-4.591 2.458-4.198 4.796-8.055 7.066-11.639 0.495-0.768 0.973-1.57 1.451-2.304 4.13-6.4 7.714-11.588 10.684-15.633 0.785-1.075 1.468-1.997 2.133-2.901 0.375-0.495 0.887-1.212 1.212-1.655v-56.474c0-16.521-9.011-31.676-23.501-39.595l-152.252-83.046c-49.493-26.999-80.23-78.78-80.23-135.168zM273.067 29.867v38.195c0 43.878 23.927 84.207 62.447 105.199l152.252 83.046c25.481 13.909 41.301 40.585 41.301 69.581v68.591l-3.311 3.959-0.649 0.768c-0.034 0.051-1.092 1.331-2.816 3.584-0.102 0.137-0.205 0.273-0.324 0.41-0.905 1.178-1.963 2.611-3.174 4.284-0.017 0.034-0.034 0.051-0.051 0.085-2.543 3.533-5.734 8.124-9.284 13.653-0.085 0.119-0.154 0.256-0.239 0.375-1.673 2.628-3.447 5.461-5.257 8.482-0.137 0.222-0.273 0.444-0.41 0.683-3.857 6.468-7.953 13.79-12.032 21.897l-0.017 0.034c-2.167 4.335-4.335 8.926-6.451 13.687v0c-0.29 0.666-0.597 1.314-0.887 1.98v0c-0.939 2.133-1.877 4.369-2.833 6.673-0.341 0.836-0.683 1.707-1.024 2.56-0.887 2.236-1.792 4.489-2.748 7.066-1.741 4.642-3.379 9.489-4.949 14.49l-0.939 3.038c-0.102 0.341-0.222 0.683-0.324 1.041-1.604 5.393-3.14 10.906-4.437 16.572l-1.553 6.758-5.82 3.755c-9.899 6.383-15.804 17.084-15.804 28.621v68.267c0 9.574 4.062 18.5 11.435 25.173l5.632 5.069v112.333l-0.461 0.358c-0.58 12.322 0.154 50.091 27.699 81.51 28.279 32.273 76.544 48.623 143.428 48.623 66.645 0 114.807-16.23 143.121-48.265 33.229-37.564 27.733-85.623 27.699-86.033l-0.154-108.527 5.632-5.086c7.373-6.656 11.435-15.582 11.435-25.156v-68.267c0-14.899-9.762-27.938-24.269-32.41l-8.499-2.611-2.731-8.448c-11.418-35.516-27.682-68.318-48.367-97.502-5.069-7.185-10.001-13.551-14.285-18.415l-4.25-4.847v-6.485c-4.301-1.792-8.431-3.908-12.578-5.956-1.058-0.529-2.133-1.007-3.174-1.536-3.738-1.929-7.373-3.977-10.974-6.093-1.894-1.109-3.755-2.253-5.598-3.396-3.277-2.065-6.537-4.147-9.694-6.383-2.048-1.434-4.011-2.987-6.007-4.506-4.932-3.721-9.694-7.646-14.285-11.759-2.202-1.98-4.437-3.908-6.571-5.973-2.441-2.372-4.779-4.847-7.1-7.322-1.963-2.082-3.891-4.181-5.769-6.349-2.253-2.594-4.489-5.205-6.622-7.885-1.758-2.219-3.396-4.506-5.069-6.775-3.55-4.847-6.895-9.83-10.069-14.967-1.485-2.406-3.021-4.779-4.403-7.236-1.724-3.038-3.277-6.161-4.847-9.284-1.28-2.526-2.509-5.069-3.703-7.663-1.417-3.106-2.799-6.212-4.062-9.387-1.263-3.123-2.372-6.315-3.482-9.489-1.297-3.703-2.543-7.424-3.635-11.23-1.365-4.71-2.611-9.455-3.669-14.268-0.529-2.441-0.956-4.915-1.399-7.39-0.802-4.352-1.468-8.738-2.014-13.158-0.273-2.202-0.546-4.403-0.751-6.639-0.649-6.656-1.058-13.346-1.058-20.105 0-7.424 0.393-14.797 1.126-22.084 0.273-2.765 0.819-5.444 1.195-8.175 0.614-4.489 1.161-8.977 2.048-13.397 0.597-2.987 1.451-5.888 2.167-8.841 0.99-4.079 1.911-8.175 3.14-12.186 0.836-2.714 1.877-5.342 2.816-8.021 1.434-4.147 2.85-8.311 4.54-12.356 0.939-2.27 2.048-4.437 3.072-6.656 1.963-4.335 3.959-8.653 6.195-12.851 0.99-1.826 2.099-3.584 3.14-5.393 2.526-4.42 5.086-8.789 7.919-13.022 1.041-1.553 2.185-3.021 3.26-4.557 3.004-4.267 6.076-8.499 9.404-12.561 1.229-1.502 2.56-2.901 3.823-4.369 2.645-3.072 5.171-6.212 7.987-9.148h-369.033zM802.133-4.267c-38.537 0-74.394 11.708-104.226 31.71-5.82 3.891-11.315 8.124-16.589 12.561-1.843 1.57-3.584 3.243-5.359 4.881-3.362 3.055-6.622 6.195-9.728 9.455-1.997 2.099-3.925 4.233-5.82 6.4-2.799 3.226-5.427 6.554-7.987 9.95-1.638 2.167-3.328 4.267-4.881 6.502-3.772 5.478-7.322 11.11-10.496 16.947-0.734 1.365-1.314 2.799-2.014 4.181-2.492 4.881-4.813 9.83-6.878 14.916-0.887 2.219-1.655 4.489-2.475 6.741-1.604 4.471-3.072 9.011-4.352 13.602-0.649 2.355-1.28 4.727-1.843 7.117-1.143 4.864-2.031 9.796-2.782 14.763-0.324 2.133-0.734 4.233-0.973 6.383-0.802 7.151-1.331 14.353-1.331 21.623 0 5.786 0.358 11.503 0.87 17.152 0.188 2.014 0.461 4.011 0.717 6.007 0.444 3.584 0.99 7.117 1.621 10.65 0.444 2.372 0.887 4.745 1.417 7.1 0.683 3.072 1.502 6.076 2.338 9.079 0.7 2.492 1.314 5.018 2.116 7.492 1.468 4.557 3.123 9.045 4.932 13.449 1.229 2.987 2.628 5.888 4.011 8.789 0.905 1.929 1.792 3.84 2.765 5.734 1.485 2.901 3.072 5.751 4.71 8.567 1.024 1.758 2.082 3.482 3.157 5.188 1.758 2.816 3.533 5.632 5.444 8.346 0.973 1.382 2.031 2.697 3.038 4.062 3.994 5.376 8.26 10.53 12.8 15.445 1.041 1.126 2.031 2.304 3.106 3.413 2.338 2.406 4.796 4.71 7.27 6.997 1.417 1.314 2.85 2.645 4.318 3.925 2.56 2.236 5.188 4.403 7.868 6.502 1.365 1.058 2.765 2.082 4.147 3.106 2.97 2.185 5.956 4.369 9.079 6.383 0.222 0.137 0.444 0.273 0.666 0.41 11.691 7.509 24.337 13.79 37.786 18.637 1.126 0.41 2.236 0.853 3.379 1.246l5.035 1.775c17.442 5.359 35.959 8.277 55.142 8.277 103.509 0 187.733-84.224 187.733-187.733s-84.224-187.733-187.733-187.733zM904.533 200.533h-85.333v85.333c0 9.438-7.646 17.067-17.067 17.067s-17.067-7.629-17.067-17.067v-85.333h-85.333c-9.421 0-17.067-7.629-17.067-17.067s7.646-17.067 17.067-17.067h85.333v-85.333c0-9.438 7.646-17.067 17.067-17.067s17.067 7.629 17.067 17.067v85.333h85.333c9.421 0 17.067 7.629 17.067 17.067s-7.646 17.067-17.067 17.067z" />
<glyph unicode="&#xe906;" glyph-name="add_Primary_Profile-01" horiz-adv-x="1448" d="M1180.459 359.891c9.251 37.308 14.24 75.444 14.24 113.667 0 258.567-210.346 468.997-468.997 468.997s-468.997-210.43-468.997-468.997c0-136.563 58.709-259.738 152.232-345.502l-0.427-0.425 15.157-12.812c1.003-0.747 2.004-1.428 3.007-2.26 8.143-6.736 16.564-13.153 25.134-19.314 2.751-2.004 5.415-3.987 8.164-5.819 9.167-6.332 18.484-12.322 28.077-17.992 2.068-1.173 4.158-2.324 6.246-3.581 10.488-5.905 21.148-11.575 32.126-16.734 0.767-0.341 1.6-0.661 2.345-1.087 35.643-16.564 73.695-28.738 113.413-35.901 1.087-0.15 2.088-0.32 3.155-0.575 12.342-2.088 24.835-3.838 37.476-4.904 1.577-0.17 3.091-0.256 4.669-0.427 12.578-1.001 25.326-1.662 38.223-1.662 55.619 0 110.088 9.827 162.060 29.056 40.717-48.969 102.006-80.177 170.544-80.177 122.237 0 221.665 99.427 221.665 221.665 0 77.108-39.63 145.070-99.512 184.784v0zM290.856 473.56c0 239.828 195.017 434.846 434.846 434.846s434.846-195.017 434.846-434.846c0-32.467-3.581-64.87-10.808-96.591-0.341 0.086-0.681 0.17-0.915 0.32-6.416 2.921-13.005 5.415-19.741 7.76-0.575 0.15-1.171 0.404-1.748 0.575-6.991 2.324-14.154 4.328-21.403 5.905-0.341 0.086-0.745 0.17-1.087 0.256-7.079 1.577-14.326 2.751-21.638 3.581-0.513 0-1.001 0.17-1.514 0.17-7.739 0.831-15.477 1.237-23.386 1.237-101.026 0-186.299-67.941-212.945-160.462-7.483 6.993-11.895 16.82-11.895 27.478v50.46c3.325 4.092 6.907 8.825 10.488 13.92 18.738 26.391 33.724 55.703 44.639 87.34 21.552 10.254 35.558 31.829 35.558 56.13v60.458c0 14.752-5.413 29.056-15.071 40.399v79.602c0.831 8.825 3.986 58.795-32.147 100.002-31.401 35.815-82.287 54.062-151.231 54.062-68.942 0-119.827-18.248-151.23-54.062-36.134-41.207-32.98-91.177-32.147-100.002v-79.602c-9.657-11.255-15.072-25.646-15.072-40.399v-60.458c0-18.822 8.42-36.305 22.832-48.136 13.813-54.126 42.21-95.099 52.698-108.913v-49.373c0-13.922-7.567-26.734-19.805-33.406l-134.836-73.526c-4.328-2.408-8.57-5.073-12.812-8.164-88.601 79.688-144.476 195.105-144.476 323.439v0zM693.383 40.038c-1.832 0.084-3.731 0.255-5.563 0.427-10.829 0.917-21.575 2.238-32.319 3.986-0.404 0-0.831 0.17-1.257 0.17-22.64 3.838-44.875 9.401-66.618 16.65-0.576 0.17-1.153 0.427-1.748 0.597-21.064 7.141-41.55 15.989-61.375 26.307-1.151 0.661-2.324 1.173-3.411 1.748-8.826 4.753-17.396 9.827-25.817 15.072-2.494 1.577-4.903 3.069-7.313 4.669-7.76 5.075-15.413 10.402-22.916 15.989-0.747 0.576-1.491 1.151-2.238 1.748 0.576 0.32 1.087 0.661 1.662 0.917l134.815 73.611c23.236 12.578 37.648 36.881 37.648 63.293v61.437l-4.008 4.753c-0.32 0.427-37.136 44.895-51.121 106.016l-1.577 6.736-5.84 3.752c-8.143 5.329-13.068 14.154-13.068 23.727v60.458c0 7.994 3.325 15.329 9.487 20.914l5.67 5.075v95.015l-0.17 2.154c-0.086 0.425-5.075 41.484 23.811 74.378 24.666 28.141 66.874 42.381 125.585 42.381 58.368 0 100.599-14.156 125.244-42.061 28.886-32.553 24.153-74.357 24.153-74.698l-0.17-97.253 5.67-5.073c6.076-5.499 9.485-12.919 9.485-20.828v-60.458c0-12.406-8.164-23.15-20.145-26.904l-8.506-2.579-2.751-8.484c-10.061-31.232-24.387-60.118-42.551-85.785-4.414-6.31-8.74-11.895-12.578-16.223l-4.242-4.753v-63.123c0-27.052 14.816-51.461 38.734-63.868-0.917-8.164-1.514-16.393-1.514-24.814 0-4.989 0.17-9.914 0.513-14.902 0.15-1.748 0.32-3.495 0.49-5.243 0.17-1.598 0.341-3.261 0.511-4.839 0.15-1.577 0.234-3.155 0.49-4.669 0.406-2.899 0.917-5.735 1.491-8.654 0.341-1.92 0.597-3.901 0.917-5.819l0.086-0.256c0.084-0.49 0.255-1.001 0.341-1.493 0.575-2.515 1.151-4.925 1.834-7.419 0.406-1.748 0.747-3.409 1.151-5.159 0.427-1.493 1.003-2.921 1.428-4.414 0.576-2.002 1.173-3.922 1.834-5.926 0.404-1.151 0.745-2.408 1.151-3.645 1.173-3.432 2.601-6.843 3.924-10.168 0-0.086 0-0.086 0.086-0.17 1.001-2.494 2.088-5.075 3.239-7.569 0.833-1.834 1.663-3.667 2.58-5.499 0.597-1.257 1.087-2.494 1.663-3.667 0.427-0.745 0.853-1.491 1.257-2.324 1.428-2.751 3.005-5.501 4.498-8.164 0.49-0.833 0.917-1.663 1.343-2.408-45.812-15.989-93.352-23.983-141.658-23.983-10.825-0.005-21.571 0.485-32.316 1.318v0zM1058.306-12.513c-62.462 0-117.761 30.826-151.892 77.875-1.428 1.897-2.665 3.901-4.008 5.905-0.915 1.321-1.918 2.665-2.751 4.072-0.745 1.173-1.407 2.345-2.152 3.581-0.767 1.257-1.428 2.494-2.174 3.838-1.173 2.088-2.494 4.072-3.581 6.162-0.747 1.577-1.493 3.155-2.238 4.753-0.256 0.406-0.427 0.917-0.597 1.321-1.321 2.665-2.665 5.329-3.815 8.078-0.597 1.429-1.001 2.921-1.6 4.328-1.321 3.411-2.665 6.843-3.815 10.34-0.513 1.577-0.917 3.241-1.429 4.903-0.086 0.511-0.234 1.001-0.404 1.493-0.917 3.432-1.834 6.843-2.665 10.254-0.17 1.087-0.427 2.152-0.597 3.239-0.234 1.087-0.404 2.088-0.661 3.177-0.661 3.731-1.237 7.567-1.748 11.405 0 0.406-0.084 0.917-0.17 1.323-0.086 1.428-0.32 2.835-0.49 4.263-0.511 5.733-0.831 11.491-0.831 17.31 0 5.415 0.32 10.658 0.747 15.903 0.49 5.075 1.171 10.254 2.088 15.647l1.321 7.419c17.993 84.782 93.352 148.651 183.463 148.651 7.569 0 15.136-0.597 22.64-1.514 1.748-0.236 3.411-0.576 5.159-0.833 6.162-0.917 12.408-2.152 18.484-3.731 1.257-0.341 2.601-0.597 3.838-1.001 15.072-4.178 29.568-10.254 43.297-18.078 56.13-32.467 94.098-93.011 94.098-162.464-0.002-103.434-84.102-187.62-187.515-187.62v0zM1160.548 192.182h-85.272v85.272c0 9.401-7.569 17.076-16.97 17.076-9.422 0-17.076-7.674-17.076-17.076v-85.272h-85.272c-9.422 0-17.075-7.674-17.075-17.075s7.653-17.076 17.075-17.076h85.272v-85.272c0-9.401 7.653-17.076 17.076-17.076 9.401 0 16.97 7.674 16.97 17.076v85.272h85.272c9.423 0 17.076 7.674 17.076 17.076 0 9.401-7.655 17.075-17.076 17.075v0z" />
<glyph unicode="&#xe907;" glyph-name="add_Profile" d="M924.399 359.885c9.301 37.291 14.268 75.452 14.268 113.715 0 258.782-210.534 469.333-469.333 469.333s-469.333-210.551-469.333-469.333c0-136.704 58.778-259.908 152.354-345.754l-0.444-0.393 15.206-12.817c0.956-0.802 1.997-1.468 2.953-2.27 8.141-6.758 16.589-13.175 25.19-19.388 2.714-1.963 5.427-3.925 8.175-5.82 9.131-6.298 18.517-12.271 28.092-17.937 2.082-1.212 4.164-2.406 6.246-3.601 10.462-5.956 21.146-11.571 32.102-16.742 0.802-0.375 1.604-0.717 2.406-1.092 35.652-16.572 73.711-28.74 113.493-35.925 1.058-0.188 2.099-0.375 3.157-0.563 12.339-2.133 24.832-3.84 37.495-4.983 1.536-0.137 3.089-0.222 4.625-0.358 12.646-1.024 25.378-1.69 38.281-1.69 55.671 0 110.148 9.847 162.185 29.047 40.721-48.981 102.076-80.247 170.615-80.247 122.334 0 221.867 99.533 221.867 221.867 0 77.175-39.646 145.203-99.601 184.951zM34.133 473.6c0 239.974 195.226 435.2 435.2 435.2s435.2-195.226 435.2-435.2c0-32.478-3.652-64.922-10.906-96.7-0.29 0.137-0.614 0.222-0.905 0.358-6.417 2.884-13.005 5.461-19.729 7.731-0.58 0.188-1.143 0.444-1.724 0.631-7.014 2.304-14.165 4.284-21.47 5.888-0.341 0.085-0.683 0.188-1.024 0.273-7.117 1.536-14.353 2.697-21.692 3.533-0.512 0.068-1.024 0.171-1.536 0.239-7.697 0.785-15.497 1.246-23.415 1.246-101.086 0-186.419-68.028-213.077-160.649-7.475 7.049-11.895 16.862-11.895 27.529v50.466c3.379 4.147 6.912 8.841 10.53 13.943 18.705 26.402 33.707 55.791 44.646 87.433 21.606 10.274 35.584 31.812 35.584 56.132v60.501c0 14.78-5.427 29.15-15.121 40.431v79.65c0.887 8.875 4.028 58.846-32.137 100.079-31.454 35.908-82.364 54.084-151.33 54.084s-119.876-18.176-151.33-54.067c-36.164-41.233-33.024-91.238-32.137-100.079v-79.65c-9.694-11.281-15.121-25.651-15.121-40.431v-60.501c0-18.79 8.431-36.318 22.852-48.145 13.824-54.153 42.257-95.147 52.77-109.039v-49.391c0-13.926-7.595-26.726-19.831-33.417l-134.946-73.609c-4.318-2.355-8.567-5.086-12.834-8.141-88.713 79.753-144.623 195.294-144.623 323.669zM436.992 39.731c-1.86 0.137-3.721 0.256-5.564 0.427-10.82 0.956-21.606 2.236-32.307 3.994-0.444 0.068-0.887 0.171-1.314 0.239-22.647 3.789-44.919 9.353-66.611 16.623-0.58 0.188-1.161 0.393-1.741 0.597-21.111 7.168-41.643 16.026-61.457 26.351-1.143 0.597-2.304 1.161-3.43 1.758-8.789 4.693-17.391 9.779-25.856 15.070-2.441 1.536-4.847 3.089-7.253 4.659-7.782 5.086-15.445 10.377-22.921 15.974-0.768 0.58-1.502 1.195-2.27 1.775 0.546 0.307 1.092 0.614 1.655 0.922l134.946 73.609c23.194 12.663 37.615 36.949 37.615 63.386v61.491l-3.977 4.745c-0.358 0.427-37.137 44.954-51.183 106.069l-1.553 6.758-5.82 3.772c-8.209 5.308-13.124 14.182-13.124 23.757v60.501c0 7.936 3.379 15.326 9.506 20.873l5.632 5.086v95.061l-0.154 2.236c-0.051 0.41-5.086 41.455 23.825 74.411 24.713 28.109 66.987 42.394 125.696 42.394 58.453 0 100.642-14.165 125.372-42.086 28.877-32.614 24.149-74.428 24.115-74.769l-0.154-97.297 5.632-5.086c6.127-5.53 9.506-12.937 9.506-20.873v-60.501c0-12.356-8.107-23.142-20.156-26.863l-8.499-2.628-2.731-8.465c-10.052-31.283-24.388-60.16-42.598-85.879-4.42-6.263-8.772-11.861-12.561-16.179l-4.233-4.83v-63.13c0-27.085 14.814-51.456 38.707-63.932-0.905-8.158-1.468-16.418-1.468-24.815 0-4.983 0.171-9.95 0.495-14.899 0.119-1.758 0.358-3.499 0.529-5.239 0.154-1.638 0.307-3.26 0.495-4.898 0.171-1.536 0.256-3.089 0.461-4.608 0.393-2.901 0.956-5.769 1.468-8.653 0.341-1.963 0.597-3.942 0.99-5.888 0 0 0.034-0.137 0.051-0.205 0.102-0.512 0.256-0.99 0.358-1.502 0.529-2.492 1.161-4.966 1.775-7.441 0.427-1.724 0.768-3.447 1.229-5.154 0.41-1.502 0.939-2.953 1.382-4.437 0.58-1.98 1.195-3.942 1.843-5.888 0.41-1.229 0.717-2.475 1.143-3.686 1.195-3.43 2.56-6.81 3.925-10.172 0.017-0.051 0.034-0.085 0.051-0.137 1.041-2.56 2.133-5.069 3.26-7.578 0.836-1.86 1.707-3.721 2.594-5.564 0.58-1.212 1.092-2.441 1.69-3.635 0.393-0.785 0.853-1.536 1.263-2.321 1.434-2.782 2.953-5.495 4.506-8.192 0.461-0.802 0.87-1.638 1.331-2.441-45.875-15.923-93.474-23.996-141.773-23.996-10.82 0-21.606 0.529-32.341 1.331zM802.133-12.8c-62.481 0-117.777 30.805-151.927 77.892-1.417 1.946-2.697 3.942-4.028 5.922-0.922 1.365-1.894 2.697-2.765 4.079-0.734 1.178-1.451 2.355-2.167 3.55-0.768 1.263-1.451 2.56-2.185 3.84-1.178 2.082-2.441 4.113-3.533 6.229-0.802 1.553-1.519 3.157-2.287 4.745-0.205 0.427-0.393 0.87-0.597 1.297-1.28 2.679-2.611 5.325-3.772 8.055-0.614 1.451-1.075 2.953-1.655 4.403-1.314 3.396-2.645 6.793-3.772 10.274-0.529 1.621-0.939 3.294-1.417 4.932-0.154 0.512-0.29 1.007-0.427 1.502-0.956 3.396-1.877 6.81-2.645 10.291-0.239 1.075-0.427 2.167-0.649 3.26-0.205 1.024-0.427 2.065-0.614 3.089-0.7 3.789-1.28 7.612-1.758 11.469-0.051 0.444-0.102 0.887-0.154 1.348-0.154 1.399-0.375 2.799-0.495 4.198-0.529 5.734-0.887 11.503-0.887 17.357 0 5.376 0.358 10.684 0.802 15.94 0.478 5.035 1.143 10.223 2.082 15.684l1.263 7.39c18.005 84.855 93.457 148.719 183.586 148.719 7.612 0 15.189-0.58 22.733-1.519 1.724-0.205 3.396-0.529 5.103-0.785 6.229-0.939 12.425-2.167 18.534-3.738 1.28-0.324 2.56-0.631 3.84-0.99 15.053-4.215 29.611-10.257 43.298-18.142 56.218-32.461 94.225-93.099 94.225-162.56 0-103.509-84.224-187.733-187.733-187.733zM904.533 192h-85.333v85.333c0 9.438-7.646 17.067-17.067 17.067s-17.067-7.629-17.067-17.067v-85.333h-85.333c-9.421 0-17.067-7.629-17.067-17.067s7.646-17.067 17.067-17.067h85.333v-85.333c0-9.438 7.646-17.067 17.067-17.067s17.067 7.629 17.067 17.067v85.333h85.333c9.421 0 17.067 7.629 17.067 17.067s-7.646 17.067-17.067 17.067z" />
<glyph unicode="&#xe908;" glyph-name="add_Profile-01" horiz-adv-x="1448" d="M1047.522 417.718c-11.608 0-22.996-1.158-34.044-3.031 18.607 27.024 33.724 56.801 44.715 88.89 22.516 10.35 37.155 32.648 37.155 57.718v63.9c0 15.337-5.763 30.215-15.975 41.823v84.921c0.938 8.735 4.447 61.009-33.346 104.088-32.789 37.395-85.919 56.321-158.055 56.321-72.157 0-125.366-18.926-158.155-56.321-22.836-26.107-30.535-55.544-32.887-76.664-27.344 14.1-59.593 21.26-96.209 21.26-165.693 0-175.367-141.242-175.526-143.576v-73.074c-10.271-11.209-15.876-24.232-15.876-37.156v-55.084c0-17.212 7.698-33.265 20.861-44.096 13.184-49.619 45.592-87.175 58.117-100.337v-43.696c0-12.625-6.76-24.072-18.607-30.633l-106.181-66.532c-40.664-22.201-65.913-64.741-65.913-111.011v-60.609h639.838c31.949-20.104 69.644-31.949 110.089-31.949 114.359 0 207.377 93.097 207.377 207.477 0 114.357-93.018 207.375-207.377 207.375v0zM520.945 102.445v-35.679h-191.401v28.66c0 34.583 18.846 66.372 50.078 83.443l106.121 66.592c21.26 11.627 34.502 33.824 34.502 58.136v57.259l-5.064 4.746c-0.459 0.378-42.84 40.426-55.385 94.972l-1.416 6.382-5.444 3.511c-7.319 4.746-11.766 12.685-11.766 21.26v55.084c0 5.764 3.908 12.625 10.75 18.767l5.226 4.688v85.838c0.239 4.607 8.575 112.663 143.576 112.663 38.173 0 70.361-8.814 95.75-26.266v-75.487c-10.211-11.608-15.975-26.486-15.975-41.823v-63.9c0-4.827 0.557-9.573 1.636-14.18 0.397-1.854 1.256-3.569 1.873-5.365 0.858-2.653 1.557-5.444 2.813-7.939 0-0.079 0.079-0.079 0.079-0.079 4.049-8.417 10.032-15.975 17.512-21.979 0.079-0.318 0.16-0.618 0.239-0.858 0.938-3.669 1.954-7.319 3.033-10.91l1.335-4.128c0.239-0.779 0.459-1.476 0.698-2.255 0.54-1.715 1.097-3.43 1.715-5.145 0.938-2.732 1.954-5.604 3.11-8.795 0.478-1.337 1.017-2.493 1.555-3.75 1.256-3.351 2.573-6.542 3.989-9.733 0.299-0.778 0.619-1.636 0.919-2.413l0.938-1.954c0.399-0.938 0.858-1.794 1.256-2.732 1.557-3.351 3.112-6.702 4.667-9.893 0.239-0.459 0.478-1.077 0.779-1.555 1.017-2.014 1.954-3.889 2.971-5.844 1.715-3.27 3.43-6.303 5.145-9.353 0.838-1.476 1.636-2.873 2.413-4.268 2.334-3.91 4.507-7.559 6.621-10.91 0.458-0.698 0.938-1.476 1.397-2.114 3.809-5.983 7.159-10.829 9.972-14.639 0.698-1.017 1.316-1.873 1.954-2.732 0.38-0.458 0.858-1.077 1.158-1.555v-52.731c0-15.516-8.417-29.617-21.958-37.017l-142.34-77.662c-46.27-25.244-75.028-73.628-75.028-126.359v0zM552.896 66.766v35.679c0 40.965 22.356 78.678 58.356 98.304l142.319 77.681c23.852 13.003 38.651 37.934 38.651 65.058v64.1l-3.112 3.669-0.638 0.778c0 0-1.018 1.257-2.653 3.351-0.060 0.079-0.139 0.239-0.22 0.397-0.857 1.077-1.873 2.413-2.971 3.97-0.081 0-0.081 0.079-0.081 0.079-2.413 3.27-5.365 7.619-8.715 12.764-0.081 0.079-0.081 0.239-0.16 0.32-1.557 2.493-3.27 5.145-4.906 7.937-0.16 0.239-0.32 0.399-0.399 0.638-3.649 6.064-7.479 12.924-11.288 20.482v0.081c-2.014 4.049-4.049 8.336-6.003 12.764-0.299 0.638-0.618 1.256-0.858 1.875-0.858 1.954-1.794 4.049-2.653 6.243-0.299 0.778-0.618 1.557-0.917 2.334-0.858 2.093-1.715 4.208-2.573 6.621-1.636 4.368-3.191 8.875-4.686 13.562l-0.858 2.792c-0.079 0.399-0.218 0.698-0.299 1.017-1.476 5.066-2.973 10.211-4.128 15.497l-1.497 6.322-5.444 3.509c-9.194 5.983-14.72 15.955-14.72 26.704v63.9c0 8.876 3.81 17.291 10.67 23.515l5.305 4.765v104.925l-0.478 0.399c-0.538 11.527 0.16 46.808 25.868 76.184 26.484 30.155 71.598 45.412 134.162 45.412 62.245 0 107.258-15.096 133.763-45.093 31.072-35.142 25.927-80.015 25.848-80.414l-0.060-101.414 5.205-4.846c6.941-6.143 10.67-14.558 10.67-23.434v-63.9c0-13.861-9.114-26.087-22.657-30.294l-7.958-2.413-2.573-7.877c-10.67-33.186-25.848-63.88-45.172-91.143-4.767-6.7-9.354-12.704-13.323-17.212l-3.968-4.528v-6.083c-4.068-1.715-7.958-3.65-11.766-5.604-1.017-0.458-2.033-0.938-2.971-1.395-3.49-1.794-6.922-3.75-10.271-5.684-1.794-1.097-3.509-2.114-5.226-3.191-3.112-1.954-6.163-3.908-9.114-6.003-1.875-1.337-3.75-2.732-5.604-4.208-4.607-3.43-9.034-7.099-13.323-10.989-2.114-1.875-4.128-3.669-6.163-5.524-2.253-2.274-4.447-4.607-6.621-6.86-1.873-1.954-3.669-3.889-5.365-5.924-2.114-2.493-4.208-4.906-6.243-7.399-1.636-2.093-3.191-4.209-4.746-6.303-3.27-4.607-6.403-9.193-9.434-14.040-1.316-2.253-2.813-4.428-4.049-6.762-1.636-2.811-3.112-5.763-4.607-8.654-1.156-2.413-2.334-4.746-3.409-7.159-1.337-2.892-2.653-5.844-3.829-8.816-1.156-2.871-2.173-5.923-3.191-8.875-1.237-3.43-2.413-6.941-3.43-10.45-1.237-4.428-2.413-8.875-3.43-13.383-0.459-2.274-0.938-4.607-1.316-6.86-0.778-4.128-1.395-8.176-1.873-12.305-0.239-2.114-0.538-4.128-0.698-6.243-0.618-6.222-1.017-12.465-1.017-18.767 0-6.941 0.399-13.882 1.097-20.642 0.239-2.573 0.778-5.147 1.097-7.638 0.538-4.208 1.077-8.417 1.934-12.545 0.559-2.813 1.337-5.524 2.035-8.257 0.938-3.829 1.794-7.638 2.871-11.369 0.778-2.573 1.796-4.987 2.653-7.559 1.337-3.829 2.653-7.717 4.287-11.548 0.858-2.093 1.875-4.128 2.813-6.222 1.854-4.049 3.729-8.097 5.844-12.005 0.917-1.715 1.934-3.351 2.871-5.047 2.413-4.147 4.827-8.197 7.479-12.165 0.938-1.476 2.035-2.792 3.033-4.288 2.811-3.968 5.704-7.939 8.735-11.687 1.177-1.397 2.413-2.713 3.59-4.128 2.493-2.873 4.825-5.764 7.479-8.556l-344.969 0.079zM1047.522 34.815c-36.079 0-69.584 10.91-97.465 29.677-5.465 3.59-10.59 7.559-15.497 11.687-1.715 1.476-3.351 3.052-4.985 4.607-3.21 2.792-6.243 5.763-9.134 8.795-1.854 1.954-3.65 3.968-5.444 6.003-2.653 3.031-5.066 6.143-7.479 9.274-1.555 2.014-3.112 4.049-4.528 6.143-3.571 5.066-6.841 10.371-9.812 15.816-0.698 1.257-1.237 2.573-1.935 3.91-2.274 4.586-4.447 9.194-6.403 13.94-0.858 2.093-1.555 4.208-2.334 6.301-1.476 4.208-2.871 8.417-4.049 12.705-0.618 2.173-1.177 4.447-1.715 6.702-1.097 4.507-1.954 9.114-2.653 13.781-0.218 1.954-0.618 3.968-0.858 5.923-0.778 6.702-1.237 13.481-1.237 20.264 0 5.365 0.299 10.75 0.778 16.034 0.16 1.875 0.459 3.75 0.698 5.625 0.399 3.351 0.938 6.621 1.476 9.972 0.478 2.174 0.858 4.349 1.337 6.623 0.618 2.871 1.397 5.684 2.173 8.496 0.698 2.334 1.257 4.667 2.035 7.001 1.316 4.208 2.871 8.417 4.588 12.545 1.177 2.813 2.413 5.525 3.75 8.178 0.858 1.873 1.694 3.669 2.553 5.384 1.416 2.713 2.892 5.365 4.447 8.016 0.938 1.636 1.954 3.27 2.973 4.827 1.636 2.653 3.27 5.305 5.045 7.798 0.938 1.316 1.875 2.573 2.813 3.809 3.75 5.066 7.798 9.893 12.005 14.5 0.998 1.018 1.854 2.093 2.871 3.112 2.195 2.253 4.528 4.448 6.862 6.542 1.316 1.256 2.653 2.493 3.968 3.75 2.413 2.014 4.906 4.049 7.399 6.062 1.257 0.938 2.573 1.954 3.91 2.892 2.713 2.014 5.524 4.049 8.475 5.923l0.559 0.378c10.97 7.020 22.815 12.943 35.36 17.451 1.018 0.399 2.114 0.778 3.112 1.177l4.767 1.636c16.275 5.066 33.565 7.798 51.575 7.798 96.747 0 175.426-78.778 175.426-175.526 0.002-96.772-78.677-175.529-175.424-175.529v0zM1143.172 226.316h-79.774v79.776c0 8.795-7.080 15.876-15.876 15.876-8.814 0-15.975-7.080-15.975-15.876v-79.776h-79.776c-8.814 0-15.974-7.18-15.974-15.975 0-8.816 7.159-15.975 15.974-15.975h79.776v-79.774c0-8.795 7.159-15.975 15.975-15.975 8.795 0 15.876 7.18 15.876 15.975v79.774h79.774c8.816 0 15.975 7.159 15.975 15.975 0 8.795-7.159 15.975-15.975 15.975v0z" />
<glyph unicode="&#xe909;" horiz-adv-x="1448" d="M724.087 842.545c-208.154 0-377.465-169.345-377.465-377.499 0-208.153 169.311-377.465 377.465-377.465s377.51 169.311 377.51 377.465c0 208.154-169.357 377.499-377.51 377.499v0zM724.758 115.603c-193.731 0-351.351 157.608-351.351 351.351 0 193.779 157.62 351.385 351.351 351.385 193.777 0 351.385-157.608 351.385-351.385 0-193.743-157.608-351.351-351.385-351.351v0zM799.37 254.137v-35.004c0-2.382-1.916-4.247-4.245-4.247h-139.484c-2.331 0-4.245 1.865-4.245 4.247v35.004c0 2.369 1.916 4.299 4.245 4.299h52.783v321.854h-55.358v39.456c0 2.369 1.865 4.245 4.196 4.245h92.691v-365.558h45.172c2.329 0.002 4.245-1.928 4.245-4.297v0zM681.801 686.076c0 19.283 15.625 34.908 34.91 34.908 19.283 0 34.91-15.625 34.91-34.908 0-19.277-15.626-34.91-34.91-34.91s-34.91 15.633-34.91 34.91v0zM658.695 712.912" />
<glyph unicode="&#xe90a;" horiz-adv-x="1448" d="M998.137 426.257c-79.441 0-144.056-64.63-144.056-144.070s64.616-144.056 144.056-144.056c79.441 0 144.075 64.616 144.075 144.056s-64.635 144.070-144.075 144.070v0zM973.182 376.784" />
<glyph unicode="&#xe90b;" horiz-adv-x="1448" d="M1139.983 282.193c0-77.191-62.575-139.766-139.766-139.766s-139.766 62.575-139.766 139.766c0 77.191 62.575 139.766 139.766 139.766s139.766-62.575 139.766-139.766z" />
<glyph unicode="&#xe90c;" glyph-name="address-book" horiz-adv-x="1448" d="M965.374 799.54h-462.391c-29.968 0-54.353-24.386-54.353-54.362v-66.737h-11.699c-5.697 0-10.321-4.624-10.321-10.321 0-5.706 4.624-10.321 10.321-10.321h11.699v-89.45h-11.699c-5.697 0-10.321-4.624-10.321-10.321 0-5.706 4.624-10.321 10.321-10.321h11.699v-89.45h-11.699c-5.697 0-10.321-4.624-10.321-10.321 0-5.706 4.624-10.321 10.321-10.321h11.699v-89.45h-11.699c-5.697 0-10.321-4.624-10.321-10.321 0-5.706 4.624-10.321 10.321-10.321h11.699v-89.45h-11.699c-5.697 0-10.321-4.624-10.321-10.321 0-5.706 4.624-10.321 10.321-10.321h11.699v-66.745c0-29.976 24.386-54.362 54.353-54.362h462.391c29.976 0 54.362 24.386 54.362 54.362v594.496c0 29.976-24.386 54.362-54.362 54.362v0zM999.093 150.683c0-18.594-15.126-33.719-33.719-33.719h-462.391c-18.585 0-33.711 15.126-33.711 33.719v66.745h11.699c5.697 0 10.321 4.615 10.321 10.321 0 5.697-4.624 10.321-10.321 10.321h-11.699v89.45h11.699c5.697 0 10.321 4.615 10.321 10.321 0 5.697-4.624 10.321-10.321 10.321h-11.699v89.45h11.699c5.697 0 10.321 4.615 10.321 10.321 0 5.697-4.624 10.321-10.321 10.321h-11.699v89.45h11.699c5.697 0 10.321 4.615 10.321 10.321 0 5.697-4.624 10.321-10.321 10.321h-11.699v89.45h11.699c5.697 0 10.321 4.615 10.321 10.321 0 5.697-4.624 10.321-10.321 10.321h-11.699v66.737c0 18.594 15.126 33.719 33.711 33.719h462.391c18.594 0 33.719-15.126 33.719-33.719v-594.496zM536.017 755.499c-5.706 0-10.321-4.615-10.321-10.321v-594.496c0-5.706 4.615-10.321 10.321-10.321 5.697 0 10.321 4.615 10.321 10.321v594.496c0 5.706-4.624 10.321-10.321 10.321v0zM890.605 392.269c-0.093 0.048-0.181 0.088-0.275 0.134l-34.302 15.912c-10.624 4.927-23.317 0.236-28.289-10.476-10.906-23.491-34.667-38.67-60.53-38.67s-49.624 15.179-60.53 38.67c-4.971 10.712-17.665 15.408-28.289 10.476l-34.302-15.912c-0.095-0.046-0.182-0.086-0.275-0.134-18.533-9.267-30.043-27.9-30.043-48.616v-49.851c0-11.759 9.568-21.327 21.327-21.327h264.226c11.759 0 21.327 9.568 21.327 21.327v49.846c0 20.722-11.51 39.355-30.043 48.621v0zM900.006 293.801c0-0.377-0.308-0.685-0.685-0.685h-264.226c-0.377 0-0.685 0.308-0.685 0.685v49.851c0 12.802 7.089 24.318 18.511 30.091l34.156 15.85c0.363 0.175 0.712-0.1 0.874-0.442 14.279-30.755 45.389-50.625 79.256-50.625s64.977 19.87 79.25 50.625c0.169 0.342 0.518 0.604 0.881 0.442l34.156-15.85c11.422-5.773 18.511-17.29 18.511-30.097v-49.846zM764.527 393.612c0.908-0.026 1.808-0.040 2.716-0.040 22.853 0 44.362 8.702 60.818 24.668 17.107 16.61 26.536 38.878 26.536 62.72v66.052c0 36.043-29.324 65.368-65.368 65.368h-44.041c-36.043 0-65.368-29.324-65.368-65.368v-62.82c0-48.542 37.999-89.175 84.706-90.581v0zM700.463 547.013c0 24.661 20.064 44.725 44.725 44.725h44.041c24.661 0 44.725-20.064 44.725-44.725v-66.052c0-18.21-7.197-35.225-20.266-47.904-13.070-12.68-30.313-19.392-48.542-18.807-35.668 1.068-64.683 32.448-64.683 69.943v62.82z" />
<glyph unicode="&#xe90d;" glyph-name="agenda_Plan" d="M221.867 960c-26.402 0-51.763-11.298-69.598-31.010-17.527-19.405-26.163-45.38-23.842-71.39h-0.427v-835.55c0-47.445 38.605-86.050 86.050-86.050h681.95v1024h-674.133zM162.133 22.050v767.317c14.268-10.735 32-17.101 51.2-17.101v-802.065c-28.297 0.393-51.2 23.467-51.2 51.849zM861.867-29.867h-614.4v802.133h51.2v-430.097c0-11.639 7.526-21.538 18.756-24.644 2.338-0.631 4.659-0.956 6.963-0.956 0.256 0 0.495 0.085 0.751 0.102 0.768 0.017 1.502 0.205 2.27 0.29 1.758 0.205 3.447 0.563 5.103 1.126 0.819 0.273 1.587 0.597 2.355 0.956 1.604 0.734 3.072 1.655 4.489 2.714 0.614 0.461 1.246 0.853 1.809 1.365 1.894 1.69 3.618 3.601 4.983 5.905l71.97 119.945 71.97-119.962c5.581-9.301 16.026-13.67 26.453-11.725 0.768 0.137 1.519 0.034 2.287 0.239 11.213 3.123 18.756 13.022 18.756 24.644v430.097h324.267v-802.133zM505.856 798.157l-0.051-0.119-2.338-4.676v-0.717l-1.707-3.925 1.707-2.594v-413.047l-85.333 142.217-85.333-142.217v412.228l27.614 55.228h166.639l-21.197-42.377zM548.147 806.4l34.133 68.267h-242.961l-34.133-68.267h-79.701c-32.324 0-60.006 23.535-63.027 53.589-1.724 17.033 3.652 33.399 15.138 46.097 11.349 12.578 27.494 19.78 44.271 19.78h640v-17.067h-85.333c-9.438 0-17.067-7.629-17.067-17.067s7.629-17.067 17.067-17.067h85.333v-17.067h-68.267c-9.438 0-17.067-7.629-17.067-17.067s7.629-17.067 17.067-17.067h68.267v-17.067h-313.719z" />
<glyph unicode="&#xe90e;" glyph-name="announcements" d="M998.675 833.125c-15.759 11.080-36.337 13.851-54.458 7.354l-763.277-274.089-129.361 69.863c-10.61 5.742-24.082 5.511-34.545-0.733-10.504-6.275-17.034-17.781-17.034-30.012v-314.957c0-12.255 6.54-23.754 17.034-29.995 10.364-6.219 23.836-6.523 34.528-0.757l129.369 69.87 58.687-21.075-11.805-32.889c-7.617-21.195-6.523-44.077 3.084-64.458 9.607-20.364 26.573-35.771 47.761-43.378l191.277-68.694c9.205-3.306 18.81-4.983 28.557-4.983 12.477 0 24.559 2.713 35.901 8.070 20.357 9.59 35.761 26.549 43.395 47.761l11.81 32.899 354.61-127.337c6.499-2.335 13.299-3.52 20.21-3.52 12.304 0 24.147 3.749 34.255 10.848 15.858 11.152 25.325 29.388 25.325 48.773v672.655c0.002 19.395-9.465 37.629-25.323 48.783zM197.882 533.152l562.253 201.906v-574.058l-562.253 201.904v170.248zM37.005 294v308.063l123.867-66.894v-174.267l-123.867-66.901zM554.761 195.4l-11.802-32.867c-4.284-11.901-12.92-21.417-24.345-26.798-11.383-5.361-24.347-5.971-36.157-1.735l-191.294 68.694c-11.867 4.277-21.393 12.913-26.781 24.345-5.388 11.424-6.012 24.263-1.735 36.157l11.81 32.889 280.304-100.684zM986.981 111.694c0-7.361-3.595-14.27-9.598-18.499-6.005-4.236-13.802-5.248-20.66-2.788l-159.571 57.301v600.641l159.554 57.296c6.851 2.451 14.672 1.422 20.677-2.788 6.005-4.236 9.598-11.145 9.598-18.506v-672.658zM267.022 509.936l267.643 96.058 12.499-34.827-267.643-96.058-12.499 34.827z" />
<glyph unicode="&#xe90f;" glyph-name="arrow" d="M0 546.798l425.108-185.691 185.683-425.108 413.209 1024-1024-413.202zM609.453 31.268l-148.281 339.483 170.123 170.894-26.152 26.032-169.938-170.71-339.937 148.485 862.023 347.831-347.838-862.016zM268.61 178.436l-26.092 26.092 26.092 26.092 26.092-26.092-26.092-26.092zM320.775 230.681l-26.092 26.092 26.092 26.092 26.092-26.092-26.092-26.092zM372.91 282.835l-26.092 26.092 26.092 26.092 26.092-26.092-26.092-26.092z" />
<glyph unicode="&#xe910;" glyph-name="assets" d="M777.609 462.097l-375.467 256c-5.239 3.55-11.998 3.942-17.596 0.99-5.581-2.953-9.079-8.755-9.079-15.087v-512c0-6.332 3.499-12.134 9.097-15.087 2.492-1.331 5.239-1.98 7.97-1.98 3.362 0 6.724 1.007 9.609 2.97l375.467 256c4.659 3.174 7.458 8.448 7.458 14.097s-2.799 10.923-7.458 14.097zM409.6 224.307v447.386l328.107-223.693-328.107-223.693zM512 960c-282.317 0-512-229.683-512-512s229.683-512 512-512 512 229.683 512 512-229.683 512-512 512zM512-29.867c-263.492 0-477.867 214.374-477.867 477.867s214.374 477.867 477.867 477.867 477.867-214.374 477.867-477.867-214.374-477.867-477.867-477.867z" />
<glyph unicode="&#xe911;" glyph-name="awards" d="M623.54 291.705c-1.54 3.080-3.080 4.62-6.159 6.159l-69.293 9.239-30.797 63.134c0 6.159-9.239 6.159-12.319 0l-30.797-63.134-69.293-9.239c-3.080 0-6.159-3.080-6.159-6.159-1.54-3.080 0-6.159 1.54-9.239l49.275-49.275-12.319-69.293c0-3.080 1.54-6.159 3.080-7.699 3.080-1.54 6.159-1.54 9.239 0l61.594 32.337 61.594-32.337c1.54 0 3.080-1.54 4.62-1.54s3.080 0 4.62 1.54 4.62 4.62 3.080 7.699l-12.319 69.293 49.275 49.275c3.080 1.54 3.080 6.159 1.54 9.239zM951.528 960h-877.714c-9.239 0-15.398-6.159-15.398-15.398v-38.496c0-135.507 110.869-246.376 246.376-246.376h155.525c-6.159-9.239-9.239-20.018-9.239-32.337s4.62-24.638 10.779-35.417c-158.605-24.638-278.713-161.684-278.713-326.448 0-181.702 147.826-329.528 329.528-329.528s329.528 147.826 329.528 329.528c0 164.764-121.648 301.811-278.713 324.908 6.159 9.239 10.779 21.558 10.779 35.417 0 12.319-3.080 23.098-9.239 32.337h153.985c135.507 0 246.376 110.869 246.376 246.376v38.496c1.54 9.239-6.159 16.938-13.859 16.938zM363.305 690.526h-58.514c-118.568 0-215.579 97.011-215.579 215.579v23.098h274.093v-238.677zM811.402 265.528c0-164.764-133.967-298.731-298.731-298.731s-298.731 133.967-298.731 298.731 133.967 298.731 298.731 298.731c164.764 0 298.731-133.967 298.731-298.731zM481.874 625.853c0 16.938 13.859 30.797 30.797 30.797s30.797-13.859 30.797-30.797c0-16.938-13.859-30.797-30.797-30.797s-30.797 13.859-30.797 30.797zM629.699 690.526h-235.597v238.677h235.597v-238.677zM936.129 906.105c0-118.568-97.011-215.579-215.579-215.579h-58.514v238.677h274.093v-23.098z" />
<glyph unicode="&#xe912;" glyph-name="awards_2" d="M721.42 325.582c-1.54 6.159-6.159 9.239-12.319 10.779l-123.188 18.478-55.435 112.409c-3.080 4.62-7.699 9.239-13.859 9.239-9.239-1.54-15.398-4.62-16.938-9.239l-55.435-112.409-123.188-18.478c-6.159-1.54-10.779-4.62-12.319-10.779s0-12.319 4.62-15.398l89.311-87.771-21.558-123.188c-1.54-6.159 1.54-12.319 6.159-15.398s10.779-4.62 16.938-1.54l110.869 58.514 110.869-58.514c1.54-1.54 4.62-1.54 7.699-1.54s6.159 1.54 9.239 3.080c4.62 3.080 7.699 9.239 6.159 15.398l-21.558 123.188 89.311 87.771c4.62 4.62 6.159 10.779 4.62 15.398zM596.692 239.35c-3.080-3.080-4.62-9.239-4.62-13.859l16.938-100.090-89.311 47.735c-1.54 1.54-4.62 1.54-7.699 1.54s-4.62 0-7.699-1.54l-90.851-47.735 16.938 100.090c1.54 4.62-1.54 10.779-4.62 13.859l-72.373 70.833 101.63 13.859c4.62 0 9.239 4.62 12.319 7.699l44.656 90.851 46.195-89.311c1.54-4.62 6.159-7.699 12.319-7.699l100.090-15.398-73.913-70.833zM950.857 960h-877.714c-9.239 0-15.398-6.159-15.398-15.398v-38.496c0-135.507 110.869-246.376 246.376-246.376h155.525c-6.159-9.239-9.239-20.018-9.239-32.337s4.62-24.638 10.779-35.417c-157.065-24.638-278.713-161.684-278.713-326.448 0-181.702 147.826-329.528 329.528-329.528s331.068 147.826 331.068 329.528c0 164.764-121.648 301.811-278.713 324.908 6.159 9.239 10.779 21.558 10.779 35.417 0 12.319-3.080 23.098-9.239 32.337h153.985c135.507 0 246.376 110.869 246.376 246.376v38.496c0 9.239-6.159 16.938-15.398 16.938zM364.174 690.526h-58.514c-118.568 0-215.579 97.011-215.579 215.579v23.098h274.093v-238.677zM812.271 265.528c0-164.764-133.967-298.731-298.731-298.731s-298.731 133.967-298.731 298.731 133.967 298.731 298.731 298.731c164.764 0 298.731-133.967 298.731-298.731zM482.743 625.853c0 16.938 13.859 30.797 30.797 30.797s30.797-13.859 30.797-30.797c0-16.938-13.859-30.797-30.797-30.797s-30.797 13.859-30.797 30.797zM630.568 690.526h-235.597v238.677h235.597v-238.677zM935.459 906.105c0-118.568-97.011-215.579-215.579-215.579h-58.514v238.677h274.093v-23.098z" />
<glyph unicode="&#xe913;" glyph-name="blank_Profile_3" d="M1024 448c0 282.307-229.693 512-512 512s-512-229.693-512-512c0-149.113 64.121-283.518 166.186-377.167l-0.484-0.428 16.607-14.001c1.080-0.912 2.253-1.657 3.333-2.551 8.825-7.317 17.967-14.262 27.276-20.983 3.016-2.178 6.032-4.357 9.104-6.479 9.942-6.851 20.145-13.349 30.571-19.512 2.271-1.341 4.561-2.644 6.851-3.947 11.413-6.498 23.068-12.623 35.002-18.246 0.875-0.41 1.769-0.782 2.644-1.192 38.893-18.078 80.412-31.353 123.83-39.191 1.136-0.205 2.271-0.41 3.426-0.614 13.48-2.327 27.108-4.189 40.904-5.437 1.676-0.149 3.351-0.242 5.046-0.391 13.74-1.136 27.629-1.862 41.705-1.862 13.945 0 27.704 0.726 41.37 1.825 1.731 0.149 3.463 0.242 5.194 0.391 13.684 1.247 27.201 3.053 40.55 5.343 1.154 0.205 2.327 0.41 3.482 0.633 42.766 7.671 83.689 20.648 122.079 38.26 1.415 0.652 2.849 1.266 4.264 1.936 11.487 5.399 22.714 11.227 33.718 17.427 2.737 1.545 5.455 3.109 8.173 4.71 10.017 5.902 19.866 12.065 29.435 18.618 3.444 2.346 6.814 4.822 10.221 7.28 8.173 5.883 16.198 11.953 23.999 18.302 1.731 1.396 3.593 2.607 5.288 4.040l17.036 14.224-0.503 0.428c102.959 93.687 167.694 228.706 167.694 378.582zM37.236 448c0 261.79 212.973 474.764 474.764 474.764s474.764-212.973 474.764-474.764c0-141.070-61.905-267.897-159.912-354.918-5.474 3.779-10.985 7.168-16.626 9.998l-157.64 78.811c-14.15 7.075-22.938 21.299-22.938 37.106v55.054c3.649 4.506 7.503 9.607 11.487 15.211 20.406 28.821 36.771 60.881 48.705 95.381 23.589 11.208 38.819 34.704 38.819 61.235v66.001c0 16.142-5.921 31.8-16.514 44.106v86.891c0.968 9.663 4.394 64.195-35.058 109.177-34.313 39.173-89.851 59.001-165.087 59.001s-130.774-19.828-165.087-58.982c-39.452-44.982-36.026-99.514-35.058-109.177v-86.891c-10.575-12.307-16.514-27.965-16.514-44.106v-66.001c0-20.499 9.197-39.619 24.948-52.522 15.081-59.075 46.117-103.796 57.586-118.952v-53.881c0-15.192-8.285-29.156-21.634-36.454l-147.214-80.3c-4.692-2.551-9.346-5.53-14.001-8.862-96.796 86.984-157.789 213.029-157.789 353.075zM790.509 63.87c-6.516-4.729-13.144-9.309-19.866-13.684-3.091-2.011-6.163-4.022-9.309-5.976-8.788-5.437-17.725-10.612-26.847-15.453-2.011-1.061-4.040-2.067-6.070-3.109-20.964-10.743-42.654-19.977-64.94-27.48-0.782-0.261-1.564-0.54-2.365-0.801-11.674-3.873-23.496-7.317-35.449-10.277-0.037 0-0.074-0.019-0.112-0.019-12.065-2.979-24.278-5.455-36.566-7.485-0.335-0.056-0.67-0.13-1.005-0.186-11.562-1.88-23.217-3.24-34.909-4.264-2.067-0.186-4.133-0.317-6.218-0.465-11.562-0.875-23.18-1.434-34.853-1.434-11.804 0-23.571 0.577-35.281 1.452-2.029 0.149-4.059 0.279-6.070 0.465-11.804 1.043-23.552 2.439-35.188 4.338-0.521 0.093-1.043 0.186-1.564 0.279-24.613 4.115-48.835 10.166-72.425 18.078-0.726 0.242-1.471 0.503-2.197 0.745-11.711 3.984-23.291 8.397-34.667 13.275-0.074 0.037-0.168 0.074-0.242 0.112-10.761 4.636-21.318 9.775-31.744 15.192-1.359 0.707-2.737 1.378-4.077 2.104-9.514 5.083-18.823 10.575-28.002 16.31-2.718 1.713-5.418 3.444-8.099 5.194-8.453 5.53-16.794 11.283-24.911 17.371-0.838 0.633-1.638 1.303-2.476 1.936 0.596 0.335 1.192 0.67 1.787 1.005l147.214 80.3c25.321 13.815 41.053 40.308 41.053 69.148l-0.019 67.063-4.282 5.176c-0.41 0.465-40.662 49.431-55.873 115.731l-1.694 7.373-6.349 4.115c-8.955 5.79-14.317 15.472-14.317 25.917v66.001c0 8.657 3.668 16.719 10.37 22.77l6.144 5.548v103.703l-0.168 2.439c-0.056 0.447-5.548 45.224 25.991 81.175 26.922 30.683 73.058 46.266 137.086 46.266 63.786 0 109.773-15.453 136.769-45.912 31.502-35.579 26.345-81.194 26.307-81.566l-0.168-106.142 6.144-5.548c6.684-6.032 10.37-14.113 10.37-22.77v-66.001c0-13.275-9.030-25.321-21.988-29.324l-9.253-2.849-2.979-9.216c-10.985-34.127-26.624-65.648-46.471-93.687-4.878-6.889-9.626-12.995-13.703-17.669l-4.617-5.269v-68.869c0-30.013 16.682-57.009 43.529-70.414l157.64-78.811c1.005-0.503 1.992-1.024 2.979-1.545-1.992-1.508-4.040-2.904-6.051-4.357z" />
<glyph unicode="&#xe914;" glyph-name="browser_1" d="M26.145 499.392h4.942c-0.486-7.529-0.519-14.896-0.503-21.817v-2.11c0.118-67.174 0.299-168.695 134.098-190.256 0.647-0.082 15.909-1.922 39.274-1.922v0c52.905 0 156.093 9.921 210.391 80.966 1.295-0.444 2.682-0.917 4.16-1.413 6.231-2.113 18.669 5.153 25.587 17.611 5.189 9.359 9.632 19.533 13.171 30.628 4.338 13.582 6.849 36.73 11.324 50.266 5.836 17.637 18.087 38.025 43.408 38.041 25.33-0.033 37.565-20.401 43.401-38.041 4.473-13.536 6.993-36.671 11.331-50.266 3.523-11.111 7.982-21.288 13.171-30.628 6.911-12.438 19.349-19.724 25.577-17.611l4.338 1.443c54.384-71.111 157.401-80.996 210.24-80.996 23.362 0 38.626 1.853 39.599 1.975 133.493 21.528 133.648 123.030 133.766 190.23v2.33c0.016 6.832-0.016 14.114-0.48 21.584 2.672 0 4.919 0 4.919 0 19.688 1.975 32.774 65.048 22.596 91.61-18.324 47.69-351.969 2.179-395.6-7.742-28.485-6.484-41.351-15.665-62.399-21.883-27.687-8.166-73.237-8.166-100.923 0-21.052 6.204-33.405 14.328-62.399 21.883-43.28 11.275-377.279 55.432-395.597 7.746-10.177-26.582 2.908-89.652 22.606-91.627zM975.982 566.198h36.277v-11.689h-36.277v11.689zM610.891 527.706c21.015 23.559 68.83 52.189 177.345 54.666 6.244 0.138 12.32 0.204 18.173 0.204 77.187 0 126.329-11.656 150.26-35.616 0.733-0.733 1.259-1.531 1.939-2.297h-100.191c-5.363 0-10.434-2.475-13.736-6.687l-28.229-36.142c-7.131-0.503-14.039-3.796-18.771-9.878l-79.008-101.088c-8.883-11.367-6.891-27.805 4.492-36.671 4.781-3.727 10.45-5.547 16.083-5.547 7.775 0 15.468 3.454 20.621 10.039l78.991 101.078c4.765 6.086 6.296 13.582 5.054 20.615l23.007 29.448h107.424c1.614-10.506 1.702-21.4 1.666-32.205v-2.103c-0.118-64.936-0.253-153.878-118.774-173.007-0.154-0.016-14.943-1.804-37.151-1.804-85.15 0-228.022 23.398-228.429 180.904-0.026 0.233-1.814 22.448 19.234 46.093zM193.526 459.75l79.001-101.078c5.14-6.586 12.849-10.043 20.598-10.043 5.633 0 11.291 1.824 16.083 5.547 11.384 8.883 13.382 25.32 4.499 36.671l-79.008 101.085c-4.739 6.083-11.64 9.392-18.768 9.878l-28.222 36.145c-3.309 4.229-8.38 6.687-13.733 6.687h-108.557c0.68 0.749 1.199 1.548 1.949 2.297 25.738 25.787 79.704 37.453 168.429 35.412 107.91-2.461 155.744-30.808 176.862-54.141 21.245-23.49 19.8-45.721 19.698-47.381-0.365-156.74-143.253-180.122-228.393-180.122-22.037 0-36.766 1.752-36.816 1.752-118.853 19.162-119.014 108.104-119.116 173.040v2.33c-0.036 10.693 0.033 21.518 1.65 31.975h115.79l23.004-29.448c-1.245-7.029 0.296-14.522 5.051-20.608zM11.748 566.198h36.28v-11.689h-36.28v11.689z" />
<glyph unicode="&#xe915;" glyph-name="browser_2" d="M18.439 385.037c0.070-1.272 2.396-30.985 52.525-46.977 25.198-8.028 114.806-22.973 196.244-22.973 81.308 0 133.453 14.442 154.966 42.996 19.291 25.581 31.404 48.484 41.144 66.872 17.509 33.099 25.554 46.534 48.685 46.534 23.121 0 31.152-13.432 48.685-46.534 9.75-18.402 21.846-41.291 41.137-66.909 21.513-28.518 73.649-42.959 154.95-42.959 81.438 0 171.043 14.945 196.244 22.973 50.135 15.992 52.468 45.705 52.484 46.403 0.070 0.628 1.91 15.449 3.162 37.502 2.745 15.835 15.328 88.58 15.328 98.243 0 3.833-1.705 15.908-22.664 16.962-21.846 37.885-121.179 43.741-180.531 43.741-73.927 0-150.623-9.307-186.508-22.654-81.264-30.203-117.518-31.072-121.384-31.072h-1.822c-3.866 0-40.12 0.869-121.374 31.072-35.915 13.331-112.614 22.654-186.518 22.654-59.331 0-158.688-5.873-180.524-43.741-20.973-1.050-22.668-13.129-22.668-16.962 0-9.646 12.599-82.412 15.335-98.243 1.252-22.054 3.088-36.875 3.104-36.928zM586.639 491.188c2.4 8.662 7.37 14.787 15.19 18.697 35.28 17.64 132.825 36.999 186.424 36.999h1.165c0.070 0 5.041 0.164 13.21 0.164 85.922 0 142.575-14.824 144.33-37.781 3.876-50.105 0.037-106.402-0.017-107.187-0.020-0.279-2.678-28.118-62.251-39.066-38.2-7.025-94.977-16.355-147.166-16.355-60.966 0-99.861 12.425-115.571 36.912-28.884 44.967-41.741 84.197-35.314 107.617zM77.042 509.271c1.762 22.94 58.418 37.781 144.32 37.781 8.169 0 13.156-0.164 14.381-0.181 53.579 0 151.144-19.359 186.414-36.999 7.83-3.91 12.807-10.035 15.197-18.701 6.42-23.42-6.43-62.634-35.297-107.61-15.71-24.507-54.595-36.912-115.561-36.912-52.196 0-109 9.313-147.173 16.351-59.583 10.968-62.234 38.774-62.268 39.278-0.050 0.591-3.9 56.834-0.013 106.993z" />
<glyph unicode="&#xe916;" glyph-name="browser_2-01" d="M1007.396 496.21c-57.47 73.686-131.912 134.636-215.274 176.256-85.096 42.486-176.642 64.53-272.208 65.686-2.632 0.072-13.2 0.072-15.832 0-95.564-1.158-187.112-23.2-272.208-65.686-83.362-41.62-157.8-102.568-215.272-176.256-22.14-28.386-22.14-68.036 0-96.422 57.47-73.686 131.91-134.636 215.272-176.256 85.096-42.486 176.642-64.53 272.208-65.686 2.632-0.072 13.2-0.072 15.832 0 95.564 1.158 187.112 23.2 272.208 65.686 83.362 41.62 157.802 102.568 215.274 176.256 22.14 28.388 22.14 68.036 0 96.422zM512 199.392c-137.084 0-248.608 111.524-248.608 248.608s111.524 248.608 248.608 248.608 248.608-111.524 248.608-248.608-111.524-248.608-248.608-248.608zM250.484 260.802c-77.84 38.864-147.356 95.784-201.034 164.606-10.374 13.302-10.374 31.88 0 45.182 53.676 68.822 123.192 125.742 201.034 164.606 22.108 11.036 44.684 20.58 67.678 28.658-59.154-53.172-96.424-130.238-96.424-215.854 0-85.62 37.272-162.69 96.434-215.864-22.996 8.080-45.578 17.628-67.688 28.666zM974.55 425.408c-53.676-68.822-123.192-125.742-201.034-164.606-22.082-11.024-44.644-20.526-67.61-28.598 59.116 53.174 96.358 130.212 96.358 215.796 0 85.628-37.28 162.702-96.446 215.878 23-8.082 45.586-17.638 67.7-28.68 77.84-38.864 147.356-95.784 201.034-164.606 10.37-13.302 10.37-31.882-0.002-45.184zM512 554.39c-58.664 0-106.39-47.726-106.39-106.39s47.726-106.39 106.39-106.39 106.39 47.726 106.39 106.39c0 58.664-47.726 106.39-106.39 106.39zM512 383.264c-35.694 0-64.736 29.038-64.736 64.734s29.038 64.736 64.736 64.736c35.694 0 64.736-29.038 64.736-64.736-0.002-35.694-29.042-64.734-64.736-64.734z" />
<glyph unicode="&#xe917;" glyph-name="browser_3" d="M1007.394 496.211c-57.47 73.686-131.912 134.636-215.274 176.256-85.096 42.486-176.642 64.53-272.207 65.686-2.632 0.072-13.2 0.072-15.832 0-95.564-1.158-187.112-23.2-272.207-65.686-83.362-41.62-157.8-102.568-215.272-176.256-22.14-28.386-22.14-68.036 0-96.422 57.47-73.686 131.91-134.636 215.272-176.256 85.096-42.486 176.642-64.53 272.207-65.686 2.632-0.072 13.2-0.072 15.832 0 95.564 1.158 187.112 23.2 272.207 65.686 83.362 41.62 157.802 102.568 215.274 176.256 22.14 28.39 22.14 68.036 0 96.422zM250.484 260.803c-77.84 38.864-147.356 95.784-201.034 164.606-10.374 13.302-10.374 31.88 0 45.182 53.676 68.822 123.192 125.742 201.034 164.606 22.108 11.036 44.684 20.58 67.678 28.66-59.156-53.176-96.426-130.24-96.426-215.856 0-85.62 37.272-162.69 96.434-215.864-22.994 8.080-45.576 17.628-67.686 28.666zM511.999 199.395c-137.084 0-248.608 111.524-248.608 248.608s111.524 248.606 248.608 248.606 248.608-111.524 248.608-248.608-111.524-248.606-248.608-248.606zM974.548 425.411c-53.676-68.822-123.192-125.742-201.034-164.606-22.082-11.024-44.644-20.526-67.61-28.598 59.116 53.174 96.358 130.214 96.358 215.796 0 85.628-37.28 162.702-96.446 215.878 23-8.082 45.586-17.638 67.7-28.68 77.84-38.864 147.356-95.784 201.034-164.606 10.372-13.304 10.372-31.882-0.002-45.184zM511.999 554.393c-58.664 0-106.39-47.726-106.39-106.39s47.726-106.39 106.39-106.39 106.39 47.726 106.39 106.39c0.002 58.664-47.724 106.39-106.39 106.39zM511.999 383.267c-35.694 0-64.736 29.038-64.736 64.736 0 35.696 29.038 64.734 64.736 64.734 35.694 0 64.734-29.038 64.734-64.734 0.002-35.698-29.040-64.736-64.734-64.736z" />
<glyph unicode="&#xe918;" glyph-name="browser_4" d="M211.275 207.615c181.836 0.055 241.499 176.612 266.976 252l1.406 4.142c4.793 14.088 9.591 26.178 14.31 35.799 3.49 7.077 11.597 9.604 18.021 9.604 6.405 0 14.521-2.527 18.005-9.54 4.731-9.687 9.529-21.748 14.329-35.865l1.404-4.142c25.474-75.389 85.131-251.943 266.98-252l0.055 9.375v-9.375c0 0 0.009 0 0.046 0 63.47 0 114.529 25.412 151.695 75.517 60.748 81.858 65.952 210.223 54.801 246.964-25.513 84.129-121.138 125.863-175.866 143.255-31.368 9.971-93.733 15.035-185.317 15.035-76.281 0-145.952-3.64-145.652-3.676-0.704 0.037-70.353 3.676-146.62 3.676-91.582 0-153.947-5.064-185.31-15.035-54.733-17.393-150.367-59.127-175.862-143.255-11.139-36.741-5.915-165.067 54.811-246.944 37.168-50.123 88.224-75.535 151.789-75.535zM579.153 577.972c0.232 0.713 23.665 70.749 156.034 70.749 8.621 0 17.636-0.289 27.167-0.915 149.445-9.852 210.202-87.231 216.812-150.498 4.633-44.3-1.048-144.101-55.694-204.776-30.153-33.414-71.456-50.391-122.913-50.391-86.784 0.039-142.689 63.103-174.305 115.992-52.24 87.484-63.349 189.262-47.1 219.839zM44.812 497.309c6.612 63.266 67.373 140.645 216.828 150.498 9.483 0.624 18.537 0.915 27.144 0.915 131.353 0 155.114-67.926 156.742-72.391 15.549-28.933 4.428-130.711-47.809-218.194-31.611-52.907-87.493-115.971-174.415-116.001-51.345 0-92.667 16.948-122.801 50.382-54.659 60.672-60.331 160.492-55.689 204.792z" />
<glyph unicode="&#xe919;" glyph-name="browser_5" d="M1010.278 876.141c-1.331 6.344-6.29 11.301-12.632 12.632-2.66 0.558-66.065 13.676-148.46 13.717-9.029 0-16.345-7.31-16.349-16.332 0-0.061 0.009-0.12 0.009-0.181 0.094-8.939 7.36-16.162 16.323-16.166 59.716-0.031 109.96-7.412 131.078-11.046 8.965-52.636 40.918-286.477-74.543-401.938-43.722-43.722-101.855-67.802-163.687-67.802-61.834 0-119.967 24.079-163.687 67.802-39.674 39.672-92.985 39.672-132.66 0-43.722-43.722-101.855-67.802-163.687-67.802s-119.964 24.079-163.687 67.802c-115.454 115.45-83.512 349.272-74.547 401.925 52.649 8.998 286.322 41.043 401.92-74.553 39.674-39.674 92.985-39.674 132.66 0 45.96 45.96 115.454 73.756 206.551 82.615 8.911 0.867 15.441 8.739 14.691 17.635-0.007 0.070-0.002 0.139-0.011 0.211-0.874 8.983-8.867 15.554-17.846 14.682-98.833-9.612-175.038-40.576-226.495-92.033-26.659-26.659-59.782-26.659-86.443 0-59.4 59.398-155.061 92.249-276.64 94.994-90.489 2.044-162.752-12.894-165.785-13.53-6.344-1.333-11.301-6.29-12.632-12.632-0.636-3.033-15.573-75.296-13.53-165.783 2.244-99.402 24.624-181.463 65.172-240.563v-427.268c0-27.031 21.99-49.021 49.021-49.021s49.021 21.99 49.021 49.021v341.775c36.339-18.286 76.715-27.959 118.577-27.959 70.562 0 136.902 27.478 186.796 77.375 26.661 26.657 59.782 26.659 86.443 0 49.895-49.895 116.234-77.375 186.796-77.375s136.9 27.478 186.794 77.375c59.403 59.403 92.251 155.061 94.996 276.642 2.044 90.484-12.891 162.748-13.53 165.781zM114.385 26.186c-9.011 0-16.34 7.331-16.34 16.34v388.402c10.262-9.963 21.184-19.007 32.681-27.071v-361.331c0-9.009-7.329-16.34-16.34-16.34zM622.419 631.454c-5.61-6.218-5.61-15.671 0-21.89 35.049-38.853 85.133-61.137 137.409-61.137s102.358 22.284 137.409 61.137c5.61 6.218 5.61 15.671 0 21.89-35.049 38.853-85.133 61.139-137.409 61.139s-102.36-22.284-137.409-61.139zM759.829 581.109c-37.862 0-74.333 14.203-102.21 39.402 27.874 25.199 64.346 39.402 102.21 39.402s74.333-14.203 102.21-39.402c-27.877-25.199-64.346-39.402-102.21-39.402zM264.171 692.593c-52.276 0-102.36-22.284-137.409-61.139-5.61-6.218-5.61-15.671 0-21.89 35.049-38.853 85.133-61.137 137.409-61.137s102.358 22.284 137.409 61.137c5.61 6.218 5.61 15.671 0 21.89-35.049 38.855-85.133 61.139-137.409 61.139zM264.171 581.109c-37.862 0-74.333 14.203-102.21 39.402 27.874 25.199 64.346 39.402 102.21 39.402s74.333-14.203 102.21-39.402c-27.877-25.199-64.346-39.402-102.21-39.402z" />
<glyph unicode="&#xe91a;" glyph-name="browser_icon_10-01" d="M94.644 508.796h4.272c-0.329-6.573-0.329-12.816-0.329-18.732v-1.972c0-57.838 0.329-144.924 115.019-163.327 0.657 0 13.802-1.643 33.849-1.643v0c45.35 0 134.080 8.544 180.745 69.669 0.986-0.329 2.3-0.657 3.615-1.315 5.258-1.972 16.103 4.272 22.018 15.117 4.601 7.887 8.216 16.76 11.173 26.29 3.615 11.502 5.915 31.548 9.859 43.050 4.929 15.117 15.445 32.534 37.135 32.534s32.205-17.417 37.135-32.534c3.944-11.502 5.915-31.548 9.859-43.050 2.958-9.53 6.901-18.403 11.173-26.29 5.915-10.845 16.76-17.089 22.018-15.117l3.615 1.315c46.665-61.125 135.065-69.669 180.416-69.669 20.046 0 33.191 1.643 33.849 1.643 114.691 18.403 114.691 105.818 115.019 163.327v1.972c0 5.915 0 12.159-0.329 18.403 2.3 0 4.272 0 4.272 0 16.76 1.643 28.262 55.866 19.389 78.542-15.774 41.078-302.336 1.972-339.8-6.573-24.318-5.587-35.492-13.474-53.566-18.732-23.661-6.901-62.768-6.901-86.757 0-18.074 5.258-28.591 12.159-53.566 18.732-37.135 9.53-324.026 47.651-339.8 6.573-8.216-22.347 2.958-76.57 19.718-78.213zM910.624 566.306h31.22v-10.187h-31.22v10.187zM596.786 533.114c18.074 20.375 59.153 44.693 152.154 46.994 5.258 0 10.516 0.329 15.445 0.329 66.383 0 108.447-9.859 129.15-30.562 0.657-0.657 0.986-1.315 1.643-1.972h-86.1c-4.601 0-8.873-1.972-11.831-5.587l-24.318-30.891c-6.244-0.329-12.159-3.286-16.103-8.544l-67.697-86.757c-7.558-9.859-5.915-23.99 3.944-31.548 3.944-3.286 8.873-4.601 13.802-4.601 6.573 0 13.145 2.958 17.746 8.544l67.697 86.757c3.944 5.258 5.258 11.502 4.272 17.746l19.718 25.304h92.344c1.315-8.873 1.315-18.403 1.315-27.605v-1.643c0-55.866-0.329-132.108-101.874-148.539 0 0-12.816-1.643-31.877-1.643-73.284 0-195.861 20.046-196.19 155.44 0.329-0.657-1.315 18.403 16.76 38.778zM238.583 474.947l67.697-86.757c4.272-5.587 11.173-8.544 17.746-8.544 4.929 0 9.859 1.643 13.802 4.601 9.859 7.558 11.502 21.689 3.944 31.548l-67.697 86.757c-3.944 5.258-9.859 8.216-16.103 8.544l-24.318 30.891c-2.958 3.615-7.23 5.587-11.831 5.587h-93.33c0.657 0.657 0.986 1.315 1.643 1.972 22.018 22.018 68.354 32.205 144.596 30.562 92.673-1.972 133.751-26.619 151.825-46.336 18.403-20.046 17.089-39.107 16.76-40.75-0.329-134.737-122.906-154.783-196.19-154.783-19.060 0-31.548 1.643-31.548 1.643-102.203 16.431-102.203 93.001-102.203 148.539v1.972c0 9.202 0 18.403 1.315 27.605h99.574l19.718-25.304c-0.986-6.244 0.329-12.488 4.601-17.746zM82.485 566.306h31.22v-10.187h-31.22v10.187z" />
<glyph unicode="&#xe91b;" glyph-name="calendar" d="M976.606-35.14l-101.871 106.564c29.798 32.751 48.128 76.083 48.128 123.733 0 101.598-82.654 184.252-184.252 184.252s-184.252-82.654-184.252-184.252 82.637-184.235 184.235-184.235c41.66 0 80.009 14.063 110.916 37.478l102.417-107.127c3.362-3.499 7.834-5.274 12.339-5.274 4.25 0 8.482 1.57 11.793 4.727 6.81 6.519 7.066 17.323 0.546 24.132zM738.594 45.056c-82.773 0-150.118 67.345-150.118 150.118s67.345 150.118 150.118 150.118 150.118-67.345 150.118-150.118-67.345-150.118-150.118-150.118zM503.467 601.6h-341.333v-494.933h341.333v307.2h307.2v187.733h-307.2zM315.733 140.8h-119.467v119.467h119.467v-119.467zM315.733 294.4h-119.467v119.467h119.467v-119.467zM315.733 448h-119.467v119.467h119.467v-119.467zM469.333 140.8h-119.467v119.467h119.467v-119.467zM469.333 294.4h-119.467v119.467h119.467v-119.467zM469.333 448h-119.467v119.467h119.467v-119.467zM622.933 448h-119.467v119.467h119.467v-119.467zM657.067 567.467h119.467v-119.467h-119.467v119.467zM537.6 21.333h-460.8v665.6h819.2v-238.933c0-9.438 7.629-17.067 17.067-17.067s17.067 7.629 17.067 17.067v426.667c0 9.438-7.629 17.067-17.067 17.067h-85.333v51.2c0 9.438-7.629 17.067-17.067 17.067h-119.467c-9.438 0-17.067-7.629-17.067-17.067v-51.2h-375.467v51.2c0 9.438-7.629 17.067-17.067 17.067h-119.467c-9.438 0-17.067-7.629-17.067-17.067v-51.2h-85.333c-9.438 0-17.067-7.629-17.067-17.067v-870.4c0-9.438 7.629-17.067 17.067-17.067h477.867c9.438 0 17.067 7.629 17.067 17.067s-7.629 17.067-17.067 17.067zM708.267 874.667v51.2h85.333v-102.4h-85.333v51.2zM179.2 874.667v51.2h85.333v-102.4h-85.333v51.2zM76.8 857.6h68.267v-51.2c0-9.438 7.629-17.067 17.067-17.067h119.467c9.438 0 17.067 7.629 17.067 17.067v51.2h375.467v-51.2c0-9.438 7.629-17.067 17.067-17.067h119.467c9.438 0 17.067 7.629 17.067 17.067v51.2h68.267v-136.533h-819.2v136.533z" />
<glyph unicode="&#xe91c;" glyph-name="documents" d="M848.192-64h-672.384c-42.383 0-76.893 34.479-76.893 76.893v870.214c0 42.414 34.51 76.893 76.893 76.893h488.271c8.489 0 15.379-6.89 15.379-15.379s-6.89-15.379-15.379-15.379h-488.271c-25.436 0-46.136-20.7-46.136-46.136v-870.214c0-25.436 20.7-46.136 46.136-46.136h672.384c25.436 0 46.136 20.7 46.136 46.136v679.396c0 8.489 6.89 15.379 15.379 15.379s15.379-6.89 15.379-15.379v-679.427c0-42.383-34.479-76.862-76.893-76.862zM909.706 676.911h-245.627c-8.489 0-15.379 6.89-15.379 15.379v245.658c0 8.489 6.89 15.379 15.379 15.379s15.379-6.89 15.379-15.379v-230.249h230.249c8.489 0 15.379-6.89 15.379-15.379s-6.859-15.409-15.379-15.409zM909.706 676.911c-3.998 0-7.997 1.569-11.011 4.644l-245.627 252.301c-5.905 6.059-5.782 15.84 0.308 21.745 6.059 5.936 15.778 5.782 21.745-0.308l245.627-252.301c5.905-6.059 5.782-15.84-0.308-21.745-2.983-2.891-6.859-4.337-10.734-4.337zM378.314 132.754c-21.53 0-41.768 8.366-56.993 23.622-31.403 31.403-31.403 82.552 0 113.955l70.895 70.865c15.194 15.225 35.371 23.622 56.901 23.622 0.031 0 0.092 0 0.154 0 8.489-0.031 15.379-6.92 15.348-15.409 0-8.458-6.89-15.348-15.379-15.348-0.031 0-0.092 0-0.123 0-13.287 0-25.744-5.167-35.125-14.61l-70.895-70.865c-19.408-19.439-19.408-51.026 0-70.465 18.823-18.762 51.58-18.793 70.465 0l70.895 70.895c9.412 9.412 14.579 21.93 14.579 35.248 0 8.489 6.89 15.379 15.379 15.379s15.379-6.89 15.379-15.379c0-21.53-8.366-41.768-23.591-56.993l-70.895-70.895c-15.256-15.225-35.494-23.622-56.993-23.622zM574.791 329.323c-8.489 0-15.379 6.89-15.379 15.379s6.89 15.379 15.379 15.379c13.349 0 25.867 5.167 35.248 14.61l70.895 70.895c9.412 9.412 14.579 21.899 14.579 35.217s-5.167 25.836-14.579 35.248c-18.854 18.793-51.641 18.793-70.465 0l-70.895-70.895c-9.412-9.412-14.579-21.93-14.579-35.248 0-8.489-6.89-15.379-15.379-15.379s-15.379 6.89-15.379 15.379c0 21.499 8.366 41.738 23.591 56.993l70.895 70.895c30.45 30.45 83.537 30.45 113.955 0 15.225-15.225 23.591-35.463 23.591-56.993s-8.366-41.738-23.591-56.962l-70.895-70.895c-15.163-15.256-35.402-23.622-56.993-23.622zM413.685 233.361c-3.937 0-7.874 1.507-10.888 4.491-5.998 5.998-5.998 15.748 0 21.745l196.631 196.662c5.998 5.998 15.748 5.998 21.745 0s5.998-15.748 0-21.745l-196.631-196.662c-2.983-3.014-6.92-4.491-10.857-4.491z" />
<glyph unicode="&#xe91d;" glyph-name="documents_2" d="M624.922 294.532h-225.844c-17.022 0-30.868-13.846-30.868-30.868v-69.268c0-17.022 13.846-30.87 30.868-30.87h225.846c17.022 0 30.87 13.846 30.87 30.87v69.268c-0.004 17.020-13.85 30.868-30.872 30.868zM616.102 203.214h-208.206v51.628h208.206v-51.628zM1013.952 466.084l0.318 0.16-148.81 294.208c-12.030 23.78-36.050 38.55-62.692 38.55h-28.282v27.35c0 10.96-8.884 19.844-19.844 19.844h-485.282c-10.96 0-19.844-8.884-19.844-19.844v-27.35h-28.282c-26.642 0-50.662-14.77-62.692-38.55l-148.812-294.208 0.318-0.16c-6.374-10.498-10.048-22.81-10.048-35.962v-310.818c0-38.324 31.18-69.502 69.504-69.502h884.994c38.324 0 69.502 31.18 69.502 69.502v310.818c0 13.152-3.674 25.464-10.048 35.962zM774.484 754.904h28.282c9.918 0 18.86-5.502 23.342-14.358l121.86-240.924h-82.862v74.132c0 10.96-8.884 19.844-19.844 19.844h-24.55v106.454c0 10.96-8.884 19.844-19.844 19.844h-26.384v35.008zM825.42 553.912v-54.288h-104.718c-17.968 0-34.348-10.586-41.73-26.964l-28.592-63.42c-0.272-0.598-0.87-0.986-1.528-0.986h-273.702c-0.658 0-1.256 0.388-1.528 0.988l-28.59 63.416c-7.384 16.38-23.764 26.966-41.732 26.966h-104.718v54.288h626.838zM289.204 806.508h445.592v-86.61h-445.592v86.61zM781.024 680.21v-86.61h-538.048v86.61h538.048zM197.892 740.546c4.48 8.858 13.424 14.358 23.342 14.358h28.282v-35.006h-26.384c-10.96 0-19.844-8.884-19.844-19.844v-106.454h-24.55c-10.96 0-19.844-8.884-19.844-19.844v-74.132h-82.862l121.86 240.922zM954.498 93.902h-884.994c-14.008 0-25.406 11.398-25.406 25.402v310.818c0 14.006 11.396 25.402 25.406 25.402h233.796c0.656 0 1.258-0.388 1.53-0.99l28.59-63.416c7.384-16.38 23.762-26.962 41.73-26.962h273.7c17.968 0 34.348 10.584 41.73 26.96l28.592 63.42c0.272 0.6 0.87 0.988 1.528 0.988h233.796c14.008 0 25.402-11.398 25.402-25.402v-310.818h0.002c0.002-14.008-11.394-25.402-25.402-25.402z" />
<glyph unicode="&#xe91e;" glyph-name="documents_10-01" d="M848.721-64h-673.441c-43.051 0-76.877 33.826-76.877 76.877v870.246c0 43.051 33.826 76.877 76.877 76.877h488.937c9.225 0 15.375-6.15 15.375-15.375s-6.15-15.375-15.375-15.375h-488.937c-24.601 0-46.126-21.526-46.126-46.126v-870.246c0-24.601 21.526-46.126 46.126-46.126h673.441c24.601 0 46.126 21.526 46.126 46.126v679.592c0 9.225 6.15 15.375 15.375 15.375s15.375-6.15 15.375-15.375v-679.592c0-43.051-33.826-76.877-76.877-76.877zM910.222 677.093h-246.006c-9.225 0-15.375 6.15-15.375 15.375v246.006c0 9.225 6.15 15.375 15.375 15.375s15.375-6.15 15.375-15.375v-230.631h230.631c9.225 0 15.375-6.15 15.375-15.375s-6.15-15.375-15.375-15.375zM910.222 677.093c-3.075 0-9.225 3.075-12.3 6.15l-246.006 252.156c-6.15 6.15-6.15 15.375 0 21.526s15.375 6.15 21.526 0l246.006-252.156c6.15-6.15 6.15-15.375 0-21.526-3.075-6.15-6.15-6.15-9.225-6.15zM378.234 132.805c-21.526 0-43.051 9.225-58.426 24.601-30.751 30.751-30.751 83.027 0 113.778l70.727 70.727c15.375 15.375 33.826 24.601 58.426 24.601 0 0 0 0 0 0 9.225 0 15.375-6.15 15.375-15.375s-6.15-15.375-15.375-15.375c0 0 0 0 0 0-12.3 0-24.601-6.15-33.826-15.375l-70.727-70.727c-18.45-18.45-18.45-52.276 0-70.727s52.276-18.45 70.727 0l70.727 70.727c9.225 9.225 15.375 21.526 15.375 33.826 0 9.225 6.15 15.375 15.375 15.375s15.375-6.15 15.375-15.375c0-21.526-9.225-43.051-24.601-58.426l-70.727-70.727c-15.375-12.3-36.901-21.526-58.426-21.526zM575.039 329.61c-9.225 0-15.375 6.15-15.375 15.375s6.15 15.375 15.375 15.375c12.3 0 24.601 6.15 33.826 15.375l70.727 70.727c9.225 9.225 15.375 21.526 15.375 33.826s-6.15 24.601-15.375 33.826c-18.45 18.45-52.276 18.45-70.727 0l-70.727-70.727c-9.225-9.225-15.375-21.526-15.375-33.826 0-9.225-6.15-15.375-15.375-15.375s-15.375 6.15-15.375 15.375c0 21.526 9.225 43.051 24.601 58.426l70.727 70.727c30.751 30.751 83.027 30.751 113.778 0 15.375-15.375 24.601-36.901 24.601-58.426s-9.225-43.051-24.601-58.426l-70.727-70.727c-15.375-12.3-33.826-21.526-55.351-21.526zM412.060 234.282c-3.075 0-9.225 0-12.3 3.075-6.15 6.15-6.15 15.375 0 21.526l196.805 196.805c6.15 6.15 15.375 6.15 21.526 0s6.15-15.375 0-21.526l-196.805-196.805c0-3.075-3.075-3.075-9.225-3.075z" />
<glyph unicode="&#xe91f;" d="M359.617 157.184l-152.769-83.33c-8.965-4.888-17.022-10.897-24.518-17.447 89.069-75.1 204.046-120.407 329.67-120.407 124.696 0 238.94 44.631 327.757 118.707-8.192 6.917-17.080 13.138-26.933 18.046l-163.589 81.785c-21.137 10.568-34.488 32.169-34.488 55.798v64.184c4.598 5.236 9.854 11.96 15.476 19.9 22.296 31.493 39.163 66.135 50.852 102.477 20.982 6.472 36.439 25.851 36.439 48.882v68.511c0 15.070-6.704 28.537-17.118 37.965v99.038c0 0 20.345 154.122-188.377 154.122s-188.377-154.122-188.377-154.122v-99.038c-10.433-9.429-17.118-22.895-17.118-37.965v-68.511c0-18.046 9.486-33.927 23.687-43.105 17.118-74.52 61.942-128.155 61.942-128.155v-62.599c-0.019-22.798-12.501-43.8-32.536-54.736z" />
<glyph unicode="&#xe920;" d="M520.752 959.923c-282.721 4.83-515.845-220.45-520.675-503.17-2.744-160.304 68.705-304.379 182.465-400.191 7.438 6.492 15.418 12.443 24.286 17.273l152.769 83.33c20.036 10.936 32.517 31.937 32.517 54.774v62.599c0 0-44.843 53.634-61.942 128.155-14.181 9.177-23.687 25.040-23.687 43.105v68.511c0 15.070 6.704 28.537 17.118 37.965v99.038c0 0-20.345 154.122 188.377 154.122s188.377-154.122 188.377-154.122v-99.038c10.433-9.429 17.118-22.895 17.118-37.965v-68.511c0-23.030-15.457-42.409-36.439-48.882-11.689-36.342-28.556-70.984-50.852-102.477-5.622-7.941-10.878-14.664-15.476-19.9v-64.184c0-23.629 13.351-45.249 34.488-55.798l163.589-81.785c9.815-4.907 18.683-11.109 26.856-18.007 110.322 92.005 181.596 229.569 184.243 384.483 4.869 282.721-220.392 515.845-503.132 520.675z" />
<glyph unicode="&#xe921;" glyph-name="event_added" d="M938.666 832h-17.066v17.066c0 37.702-30.564 68.266-68.266 68.266s-68.266-30.564-68.266-68.266v-17.066h-546.134v17.066c0 37.702-30.564 68.266-68.266 68.266s-68.268-30.562-68.268-68.266v-17.066h-17.066c-47.128 0-85.334-38.204-85.334-85.334v-682.666c0-47.128 38.206-85.334 85.334-85.334h853.334c47.128 0 85.332 38.206 85.332 85.334v682.666c0 47.13-38.204 85.334-85.334 85.334zM819.2 849.066c0 18.852 15.282 34.134 34.134 34.134s34.134-15.282 34.134-34.134v-102.4c0-18.852-15.282-34.134-34.134-34.134s-34.134 15.282-34.134 34.134v102.4zM136.534 849.066c0 18.852 15.282 34.134 34.134 34.134s34.132-15.282 34.132-34.134v-102.4c0-18.852-15.282-34.134-34.134-34.134s-34.134 15.282-34.134 34.134v102.4zM989.866 64c0-28.276-22.922-51.2-51.2-51.2h-853.332c-28.276 0-51.2 22.922-51.2 51.2v512h955.734v-512zM989.866 610.134h-955.732v136.534c0 28.276 22.924 51.2 51.2 51.2h17.066v-51.2c0-37.702 30.564-68.266 68.266-68.266s68.266 30.564 68.266 68.266v51.2h546.134v-51.2c0-37.702 30.564-68.266 68.266-68.266s68.266 30.564 68.266 68.266v51.2h17.066c28.276 0 51.2-22.922 51.2-51.2v-136.534zM814.422 468.65l-68.438 68.266c-3.22 3.194-7.58 4.976-12.118 4.95-4.586-0.064-8.954-1.97-12.118-5.29l-295.082-310.614-90.112 105.13c-3.086 3.616-7.538 5.78-12.288 5.974-4.796 0.376-9.504-1.444-12.8-4.95l-68.266-68.266c-6.284-6.592-6.284-16.96 0-23.552l170.666-187.734c3.266-3.62 7.924-5.67 12.8-5.632 4.646 0.018 9.082 1.928 12.288 5.29l375.466 392.534c6.506 6.638 6.506 17.258 0.002 23.894zM426.666 89.088l-147.114 162.646 43.69 43.69 90.454-105.472c3.144-3.982 7.898-6.36 12.97-6.486 4.822-0.124 9.472 1.798 12.8 5.29l294.4 311.638 44.374-43.862-351.574-367.444z" />
<glyph unicode="&#xe922;" glyph-name="exit_logoff" d="M221.871 516.426c-9.42 0-17.066-7.646-17.066-17.066v-102.402c0-9.42 7.646-17.066 17.066-17.066s17.066 7.646 17.066 17.066v102.402c0.002 9.42-7.644 17.066-17.066 17.066zM223.715 955.392l-161.369-64.565c-45.449-16.828-62.345-39.665-62.345-84.26v-716.969c0-44.597 16.896-67.431 61.919-84.124l162.119-64.855c8.022-3.038 16.076-4.574 23.963-4.574 34.305 0 59.205 28.673 59.205 68.183v887.673c0 48.539-38.709 80.352-83.492 63.491zM273.072 4.227c0-20.36-10.070-34.049-25.071-34.049-3.738 0-7.766 0.802-11.606 2.236l-162.187 64.905c-32.205 11.93-40.073 22.204-40.073 52.277v716.969c0 30.073 7.868 40.329 40.483 52.413l161.453 64.581c4.164 1.57 8.174 2.372 11.912 2.372 15.002 0 25.089-13.67 25.089-34.033v-887.673zM356.274 857.768h241.071c28.229 0 51.201-22.972 51.201-51.201v-256.006c0-9.42 7.628-17.066 17.066-17.066s17.066 7.646 17.066 17.066v256.006c0 47.053-38.281 85.336-85.336 85.336h-241.069c-9.42 0-17.066-7.646-17.066-17.066s7.646-17.068 17.066-17.068zM665.614 362.823c-9.438 0-17.066-7.646-17.066-17.066v-256.006c0-28.229-22.972-51.201-51.201-51.201h-238.939c-9.42 0-17.066-7.646-17.066-17.066s7.646-17.066 17.066-17.066h238.939c47.053 0 85.336 38.281 85.336 85.336v256.006c-0.002 9.418-7.63 17.064-17.068 17.064zM1022.708 454.679c-0.87 2.1-2.116 3.976-3.704 5.564l-170.654 170.67c-6.674 6.672-17.46 6.672-24.133 0-6.674-6.674-6.674-17.46 0-24.133l141.537-141.553h-573.212c-9.42 0-17.066-7.646-17.066-17.066s7.646-17.066 17.066-17.066h573.214l-141.539-141.539c-6.674-6.674-6.674-17.46 0-24.133 3.328-3.328 7.698-5 12.066-5 4.37 0 8.738 1.672 12.066 5l170.654 170.654c1.588 1.588 2.834 3.464 3.704 5.564 1.724 4.162 1.724 8.872 0 13.038z" />
<glyph unicode="&#xe923;" glyph-name="exit_or_logoff" d="M604.35 180.662c-13.8 2.003-25.599-8.681-25.599-22.037v-155.818h-534.232v890.388h534.232v-155.151c0-11.129 8.013-21.146 18.921-22.705 13.8-2.003 25.599 8.681 25.599 22.037v178.077c0 12.244-10.017 22.26-22.26 22.26h-578.751c-12.244 0-22.26-10.017-22.26-22.26v-934.906c0-12.244 10.017-22.26 22.26-22.26h578.751c12.244 0 22.26 10.017 22.26 22.26v177.409c0 11.131-8.013 21.148-18.921 22.707zM1017.489 463.581l-222.595 222.597c-8.905 8.458-22.928 8.237-31.386-0.444-8.237-8.681-8.237-22.26 0-30.942l184.533-184.533h-680.257c-10.908 0-20.701-7.569-22.482-18.475-2.448-14.024 8.458-26.044 22.037-26.044h680.923l-184.755-184.533c-8.905-8.458-9.126-22.705-0.444-31.386 8.458-8.905 22.705-9.126 31.386-0.444 0.223 0.223 0.444 0.444 0.444 0.444l222.597 222.597c8.679 8.235 8.679 22.482-0.002 31.163z" />
<glyph unicode="&#xe924;" glyph-name="favourite-events" d="M1005.191 221.506c-7.168 73.456-62.013 126.684-130.618 126.684-43.042 0-79.169-26.030-102.109-57.719-22.922 31.689-59.067 57.719-102.109 57.719-68.606 0-123.433-53.228-130.618-126.684-0.754-4.796-2.605-21.916 4.060-48.665 9.808-39.468 32.354-75.306 65.228-103.654l149.625-128.031c4.006-3.431 8.91-5.156 13.815-5.156s9.808 1.725 13.815 5.138l149.66 128.067c32.839 28.294 55.384 64.132 65.192 103.618 6.647 26.767 4.814 43.869 4.060 48.683zM966.263 181.482c-7.994-32.228-26.569-61.653-53.713-85.007l-140.068-119.858-140.032 119.84c-27.18 23.407-45.755 52.815-53.749 85.043-5.425 21.791-3.485 34.078-3.485 34.078l0.287 1.886c4.401 47.084 38.408 94.762 94.887 94.762 39.324 0 71.39-32.533 85.69-64.761l16.419-37.024 16.419 37.024c14.3 32.246 46.348 64.761 85.69 64.761 56.498 0 90.486-47.677 95.121-96.396 0.018-0.108 1.994-12.395-3.467-34.348zM664.696 385.143h161.679v197.607h-682.643v-520.964h359.286v323.357h161.679zM664.696 546.822h125.75v-125.75h-125.75v125.75zM341.339 546.822h125.75v-125.75h-125.75v125.75zM179.661 546.822h125.75v-125.75h-125.75v125.75zM179.661 385.143h125.75v-125.75h-125.75v125.75zM305.411 97.714h-125.75v125.75h125.75v-125.75zM467.089 97.714h-125.75v125.75h125.75v-125.75zM467.089 259.393h-125.75v125.75h125.75v-125.75zM503.018 421.072v125.75h125.75v-125.75h-125.75zM485.054-28.036h-431.143v700.607h862.286v-233.536c0-9.934 8.030-17.964 17.964-17.964s17.964 8.030 17.964 17.964v431.143c0 9.934-8.030 17.964-17.964 17.964h-89.821v53.893c0 9.934-8.030 17.964-17.964 17.964h-125.75c-9.934 0-17.964-8.030-17.964-17.964v-53.893h-395.214v53.893c0 9.934-8.030 17.964-17.964 17.964h-125.75c-9.934 0-17.964-8.030-17.964-17.964v-53.893h-89.821c-9.934 0-17.964-8.030-17.964-17.964v-916.178c0-9.934 8.030-17.964 17.964-17.964h449.107c9.934 0 17.964 8.030 17.964 17.964s-8.030 17.964-17.964 17.964zM718.589 924.071h89.821v-107.786h-89.821v107.786zM161.697 924.071h89.821v-107.786h-89.821v107.786zM53.911 852.214h71.857v-53.893c0-9.934 8.030-17.964 17.964-17.964h125.75c9.934 0 17.964 8.030 17.964 17.964v53.893h395.214v-53.893c0-9.934 8.030-17.964 17.964-17.964h125.75c9.934 0 17.964 8.030 17.964 17.964v53.893h71.857v-143.714h-862.286v143.714z" />
<glyph unicode="&#xe925;" glyph-name="favourites" d="M941.29 814.55c-53.62 53.62-124.608 82.927-200.371 82.927s-146.968-29.524-200.588-83.144l-28.004-28.004-28.438 28.438c-53.62 53.62-125.042 83.361-200.805 83.361-75.546 0-146.751-29.524-200.154-82.927-53.62-53.62-83.144-124.825-82.927-200.588 0-75.763 29.741-146.751 83.361-200.371l407.689-407.689c5.644-5.644 13.242-8.683 20.623-8.683s14.979 2.822 20.623 8.466l408.557 407.038c53.62 53.62 83.144 124.825 83.144 200.588 0.217 75.763-29.090 146.968-82.71 200.588zM899.609 454.837l-387.934-386.414-387.066 387.066c-42.549 42.549-65.994 98.992-65.994 159.125s23.228 116.576 65.777 158.907c42.332 42.332 98.774 65.777 158.69 65.777 60.133 0 116.793-23.445 159.342-65.994l49.062-49.062c11.506-11.506 29.958-11.506 41.464 0l48.627 48.627c42.549 42.549 99.209 65.994 159.125 65.994s116.358-23.445 158.907-65.777c42.549-42.549 65.777-98.992 65.777-159.125 0.217-60.133-23.228-116.576-65.777-159.125z" />
<glyph unicode="&#xe926;" glyph-name="favourites_4" d="M206.882-39.824c-3.794 0-7.588 1.173-10.778 3.501-5.645 4.106-8.468 11.053-7.277 17.926l56.656 330.256-239.948 233.863c-4.986 4.876-6.782 12.152-4.637 18.769 2.163 6.635 7.9 11.474 14.81 12.482l331.576 48.188 148.302 300.471c3.079 6.269 9.458 10.228 16.423 10.228v0c6.983 0 13.362-3.959 16.423-10.228l148.284-300.471 331.594-48.188c6.91-1.008 12.629-5.829 14.81-12.482 2.145-6.617 0.367-13.912-4.637-18.769l-239.948-233.9 56.637-330.238c1.173-6.873-1.65-13.82-7.277-17.926-5.645-4.142-13.142-4.674-19.319-1.393l-296.567 155.909-296.604-155.909c-2.676-1.393-5.609-2.090-8.523-2.090zM57.719 546.052l220.244-214.69c4.307-4.197 6.287-10.283 5.26-16.221l-52-303.129 272.263 143.115c5.334 2.823 11.694 2.823 17.065 0l272.226-143.115-51.982 303.129c-1.026 5.939 0.953 12.006 5.26 16.221l220.244 214.69-304.357 44.228c-5.975 0.861-11.126 4.619-13.802 10.026l-136.131 275.782-136.131-275.8c-2.676-5.407-7.827-9.165-13.802-10.026l-304.357-44.21z" />
<glyph unicode="&#xe927;" glyph-name="favourites-01" horiz-adv-x="1448" d="M992.732 531.793c-31.349 31.354-72.854 48.492-117.156 48.492-44.295 0-85.931-17.267-117.28-48.616l-16.375-16.375-16.629 16.627c-31.354 31.349-73.108 48.74-117.41 48.74-44.171 0-85.802-17.26-117.030-48.486-31.349-31.354-48.609-72.985-48.486-117.285 0-44.295 17.391-85.804 48.74-117.156l238.377-238.373c3.298-3.303 7.741-5.081 12.055-5.081 4.319 0 8.763 1.655 12.060 4.952l238.881 237.993c31.354 31.354 48.615 72.985 48.615 117.287 0.129 44.295-17.006 85.931-48.362 117.28v0zM977.845 318.017l-234.764-242.34-234.231 242.746c-25.75 26.684-39.938 62.082-39.938 99.794s14.054 73.108 39.802 99.653c25.619 26.551 59.777 41.256 96.034 41.256 36.391 0 70.676-14.704 96.426-41.388l29.694-30.766c6.96-7.22 18.127-7.22 25.094 0l29.424 30.492c25.75 26.684 60.035 41.388 96.297 41.388 36.255 0 70.415-14.704 96.163-41.249 25.748-26.691 39.809-62.084 39.809-99.794 0.129-37.71-14.061-73.11-39.809-99.792v0z" />
<glyph unicode="&#xe928;" d="M223.655 198.646c0 0-3.253 74.333-5.005 186.233-1.627 104.291 0.235 194.238 2.006 323.786 1.681 123.174 72.941 251.334 287.091 251.334 187.477 0 231.891-85.681 222.984-144.15 0 0 28.331-2.511 43.292-21.972 25.367-33.012 25.097-152.209 23.056-273.612-4.012-238.125-5.15-321.62-5.15-321.62h-568.273z" />
<glyph unicode="&#xe929;" d="M949.577 146.392c-33.825 121.367-203.686 107.904-276.99 142.758s-61.867 151.794-71.154 172.14h-178.859c-9.287-20.346 2.167-137.303-71.154-172.14-73.305-34.854-243.165-21.394-276.99-142.758-18.664-66.943-17.761-87.398-22.93-161.57 0 0 233.065-48.821 455.235-48.821s465.77 48.821 465.77 48.821c-5.15 74.172-4.263 94.628-22.927 161.57z" />
<glyph unicode="&#xe92a;" d="M577.869 262.429c73.305-34.854 243.165-21.394 276.99-142.758 17.78-63.747 17.816-85.356 22.223-151.325 58.363 9.053 95.418 16.478 95.418 16.478-5.15 74.153-4.263 94.624-22.93 161.57-33.825 121.367-203.686 107.904-276.99 142.758s-61.867 151.794-71.154 172.14h-94.692c0-0.003-2.186-164.029 71.135-198.864z" />
<glyph unicode="&#xe92b;" d="M186.487 72.492l158.282 20.092 167.241-141.983-158.658 182.89z" />
<glyph unicode="&#xe92c;" d="M837.461 72.492l-158.262 20.092-167.244-141.983 158.642 182.89z" />
<glyph unicode="&#xe92d;" d="M837.461 72.492c-33.446 70.251-76.413 142.073-161.046 214.908-1.318 0.579-2.62 1.157-3.883 1.752-20.561 9.776-34.439 26-43.996 44.739h-233.103c-9.557-18.738-23.435-34.963-43.996-44.739-1.263-0.595-2.565-1.193-3.883-1.752-84.633-72.835-127.601-144.658-161.046-214.908l162.634 40.094 162.869-161.985 162.834 161.985 162.618-40.094z" />
<glyph unicode="&#xe92e;" d="M676.415 287.401c-1.318 0.579-2.62 1.157-3.883 1.752-20.561 9.776-34.439 26-43.996 44.739h-103.227c10.499-31.26 26.904-59.282 52.56-71.479 39.624-18.828 107.435-23.56 166.736-43.077-19.314 22.586-41.717 45.26-68.19 68.065z" />
<glyph unicode="&#xe92f;" d="M640.658 314.883c-37.943 48.063-31.62 129.732-39.226 146.426h-178.859c-7.625-16.694-1.302-98.366-39.226-146.426 15.177-170.928 128.665-364.263 128.665-364.263s113.179 191.634 128.645 364.263z" />
<glyph unicode="&#xe930;" d="M577.869 262.429c14.273-6.793 32.218-11.743 52.091-16.208 4.931 22.892 8.673 45.948 10.715 68.679-37.943 48.063-31.62 129.732-39.226 146.426h-94.698c-0.016-0.035-2.202-164.062 71.119-198.896z" />
<glyph unicode="&#xe931;" d="M398.522 340.43c29.668-25.586 64.467-50.953 113.289-58.289 48.982 7.355 83.656 33.246 113.379 58.938-24.718 48.134-17.073 105.538-23.76 120.229h-178.859c-6.703-14.707 0.778-72.726-24.049-120.879z" />
<glyph unicode="&#xe932;" d="M708.417 512.588c-20.32 3.654-31.345 36.911-24.624 74.28s28.641 64.701 48.962 61.046c20.32-3.654 31.345-36.911 24.624-74.28s-28.641-64.701-48.962-61.046z" />
<glyph unicode="&#xe933;" d="M266.079 573.604c-6.721 37.369 4.304 70.626 24.624 74.28s42.241-23.677 48.962-61.046c6.721-37.369-4.304-70.626-24.624-74.28s-42.241 23.677-48.962 61.046z" />
<glyph unicode="&#xe934;" d="M706.084 809.109l-192.592-29.633c0 0-68.245-2.964-123.933-31.276-51.117-26-90.018-76.863-90.522-91.226-4.986-141.948 23.994-336.401 212.719-364.803 303.245 45.623 194.328 516.938 194.328 516.938z" />
<glyph unicode="&#xe935;" d="M511.759 292.168c303.245 45.623 194.328 516.941 194.328 516.941h-45.459c12.45-196.874 29.668-301.454-41.81-415.466-56.63-90.342-107.059-101.475-107.059-101.475z" />
<glyph unicode="&#xe936;" d="M698.876 830.104c0 0-105.123-50.538-262.029-47.844-138.331 2.366-136.508-116.198-137.717-124.203 0 0 32.253 59.771 122.197 76.14 81.724 14.871 146.789-10.011 205.222-15.501 65.011-6.108 86.694 43.221 86.694 43.221l-14.366 68.187z" />
<glyph unicode="&#xe937;" d="M693.292 849.402c0 0-99.575-58.414-256.445-53.791-167.659 4.951-138.585-133.905-137.717-137.573 0 0 17.292 65.065 106.371 86.025 57.839 13.605 113.433 8.204 171.092-3.234 129.677-25.73 141.115 51.171 141.115 51.171s6.516 29.958-24.416 57.401z" />
<glyph unicode="&#xe938;" d="M747.694 526.284c0-7.753-6.285-14.039-14.039-14.039s-14.039 6.285-14.039 14.039c0 7.753 6.285 14.039 14.039 14.039s14.039-6.285 14.039-14.039z" />
<glyph unicode="&#xe939;" d="M304.582 526.284c0-7.753-6.285-14.039-14.039-14.039s-14.039 6.285-14.039 14.039c0 7.753 6.285 14.039 14.039 14.039s14.039-6.285 14.039-14.039z" />
<glyph unicode="&#xe93a;" glyph-name="history" d="M555.008 906.96c-254.192 0-460.992-206.784-460.96-459.664-0.192-4.016-2.512-70.96 16.544-143.056l-62.096 36.192c-15.424 8.96-35.072 3.76-44.128-11.632-8.928-15.36-3.744-35.12 11.632-44.080l145.52-84.832c0.304-0.16 0.608-0.208 0.896-0.352 1.552-0.832 3.136-1.44 4.816-2.016 1.136-0.4 2.24-0.816 3.376-1.088 1.392-0.304 2.768-0.4 4.192-0.528 0.992-0.096 1.984-0.4 2.976-0.4 0.56 0 1.088 0.192 1.664 0.224 0.544 0.016 1.008-0.112 1.552-0.064 0.8 0.080 1.52 0.416 2.304 0.544 1.552 0.272 3.024 0.608 4.512 1.088 1.248 0.416 2.48 0.912 3.68 1.488 1.344 0.64 2.608 1.344 3.856 2.176 1.136 0.736 2.224 1.536 3.248 2.4 1.136 0.96 2.144 2 3.152 3.12 0.944 1.040 1.76 2.128 2.544 3.28 0.432 0.64 1.008 1.104 1.392 1.76 0.288 0.496 0.288 1.072 0.528 1.568 0.432 0.88 1.104 1.648 1.488 2.592l57.888 143.328c6.672 16.512-1.296 35.312-17.792 41.984-16.528 6.624-35.312-1.312-41.984-17.824l-29.728-73.6c-19.84 66.352-17.584 134.528-17.52 136.4 0 218.624 177.872 396.48 396.464 396.48 218.608 0 396.464-177.856 396.464-396.48 0-218.592-177.856-396.448-396.464-396.448-17.824 0-32.256-14.448-32.256-32.256s14.416-32.256 32.256-32.256c254.208 0 460.992 206.784 460.992 460.96-0.032 254.208-206.816 460.992-461.008 460.992zM542.656 383.968c3.248-1.344 6.672-1.824 10.144-2.064 0.72-0.048 1.424-0.432 2.144-0.432 3.776 0 7.44 0.864 10.944 2.144 0.976 0.352 1.888 0.864 2.832 1.328 2.672 1.28 5.136 2.912 7.408 4.912 0.496 0.432 1.152 0.592 1.648 1.088l201.392 201.392c12.608 12.608 12.608 33.008 0 45.616-12.592 12.608-32.992 12.608-45.616 0l-186.112-186.096-167.024 69.952c-16.528 6.896-35.344-0.848-42.24-17.296-6.88-16.432 0.88-35.328 17.28-42.208l187.008-78.304c0.064-0.016 0.128-0.016 0.192-0.032z" />
<glyph unicode="&#xe93b;" glyph-name="home" d="M1015.193 492.748l-152.306 141.428v231.696h-175.448v-68.793l-175.448 162.921-503.184-467.252c-7.088-6.597-7.509-17.703-0.912-24.808 6.579-7.088 17.685-7.492 24.808-0.912l58.231 54.073v-585.1h842.149v585.118l58.231-54.073c3.369-3.141 7.667-4.684 11.948-4.684 4.72 0 9.404 1.877 12.843 5.597 6.597 7.088 6.176 18.194-0.912 24.791zM722.528 830.783h105.269v-164.026l-105.269 97.742v66.284zM406.723-28.91v369.545c0 9.071 7.369 16.439 16.439 16.439h177.658c9.071 0 16.439-7.369 16.439-16.439v-369.545h-210.537zM897.976-28.91h-245.627v369.545c0 28.423-23.106 51.529-51.529 51.529h-177.658c-28.423 0-51.529-23.106-51.529-51.529v-369.545h-245.627v582.609l385.985 358.422 385.985-358.404v-582.626z" />
<glyph unicode="&#xe93c;" glyph-name="home_on-top_left_10-01" horiz-adv-x="1448" d="M1148.71 469.588l-132.107 122.646v200.912h-152.232v-59.689l-152.232 141.396-436.228-405.265c-6.020-5.676-6.537-15.309-0.688-21.502 5.676-6.193 15.309-6.537 21.502-0.688l50.572 46.96v-507.442h730.372v507.442l50.572-46.96c2.924-2.752 6.709-4.128 10.321-4.128 4.128 0 8.085 1.72 11.181 4.816 5.504 6.020 5.16 15.653-1.032 21.502v0zM894.989 762.7h91.167v-142.256l-91.167 84.803v57.453zM620.971 17.019v320.462c0 7.913 6.365 14.277 14.277 14.277h154.125c7.913 0 14.277-6.365 14.277-14.277v-320.462h-182.679zM1047.050 17.019h-212.953v320.462c0 24.598-19.954 44.724-44.724 44.724h-154.125c-24.598 0-44.724-20.126-44.724-44.724v-320.462h-212.953v505.377l334.739 310.829 334.739-311.002v-505.205z" />
<glyph unicode="&#xe93d;" glyph-name="information" d="M874.040 810.040c-96.706 96.704-225.278 149.96-362.040 149.96-136.76 0-265.334-53.256-362.040-149.96-96.704-96.706-149.96-225.278-149.96-362.040s53.256-265.334 149.96-362.040c96.706-96.704 225.28-149.96 362.040-149.96 136.762 0 265.334 53.256 362.040 149.96s149.96 225.278 149.96 362.040-53.256 265.334-149.96 362.040zM512 2.782c-245.492 0-445.218 199.724-445.218 445.218s199.726 445.218 445.218 445.218 445.218-199.726 445.218-445.218-199.726-445.218-445.218-445.218zM463.16 552.448h98.416v-384.824h-98.416v384.824zM463.16 703.732h98.416v-97.678h-98.416v97.678z" />
<glyph unicode="&#xe93e;" glyph-name="information_2" d="M512 960c-282.317 0-512-229.686-512-512.003s229.683-511.997 512-511.997 512 229.68 512 511.997c0 282.317-229.683 512.003-512 512.003zM512 29.091c-230.99 0-418.909 187.92-418.909 418.906s187.92 418.912 418.909 418.912 418.909-187.926 418.909-418.912c0-230.986-187.923-418.906-418.909-418.906zM511.994 742.788c-34.214 0-62.048-27.853-62.048-62.089 0-34.205 27.834-62.033 62.048-62.033s62.048 27.828 62.048 62.033c0 34.236-27.834 62.089-62.048 62.089zM512 525.576c-25.706 0-46.545-20.84-46.545-46.545v-279.273c0-25.706 20.84-46.545 46.545-46.545s46.545 20.84 46.545 46.545v279.273c0 25.706-20.84 46.545-46.545 46.545z" />
<glyph unicode="&#xe93f;" glyph-name="information_3" d="M511.989 960c-282.319 0-511.989-229.684-511.989-512.001 0-282.313 229.669-511.999 511.989-511.999 282.326 0 512.013 229.686 512.013 511.999 0 282.317-229.69 512.001-512.013 512.001zM511.989-14.049c-254.756 0-462.035 207.273-462.035 462.048 0 254.769 207.279 462.048 462.035 462.048 254.787 0 462.060-207.279 462.060-462.048 0-254.775-207.273-462.048-462.060-462.048zM659.284 168.907v-67.782c0-2.853-2.317-5.146-5.121-5.146h-248.837c-2.835 0-5.121 2.305-5.121 5.146v67.782c0 2.831 2.298 5.121 5.121 5.121h71.686v361.291h-72.422c-2.837 0-5.092 2.292-5.092 5.104v69.325c0 2.847 2.27 5.115 5.092 5.115h169.791c2.829 0 5.121-2.28 5.121-5.115v-435.72h74.661c2.804 0 5.121-2.29 5.121-5.121zM433.139 741.445c0 43.112 34.929 78.051 78.051 78.051 43.093 0 78.045-34.941 78.045-78.051s-34.952-78.051-78.045-78.051c-43.134 0-78.051 34.939-78.051 78.051z" />
<glyph unicode="&#xe940;" glyph-name="investors" d="M512.958 432.958c-3.48-11.25 2.812-23.188 14.084-26.666 2.084-0.646 4.208-0.958 6.292-0.958 9.126 0 17.562 5.876 20.376 15.042 7.278 23.554 15.542 45.234 24.368 66.026 30.308-24.98 64.104-38.402 101.152-38.402 167.354 0 302.104 226.646 302.104 414.312 0 30.334-24.688 55.020-55.020 55.020-187.668 0.002-414.314-134.748-414.314-302.102 0-35.046 11.898-67.214 34.284-96.278-12.364-26.842-23.74-54.962-33.326-85.994zM926.312 874.666c6.812 0 12.354-5.542 12.354-12.354 0-167.292-119.708-371.646-259.438-371.646-30.148 0-57.898 12.25-82.682 35.764 50.776 97.076 125.864 163.83 244.87 222.424 10.584 5.208 14.916 18 9.73 28.562-5.23 10.584-18.042 14.876-28.562 9.73-119.596-58.886-199.028-128.458-253.974-224.51-8.908 16.594-13.942 34.092-13.942 52.594-0.002 139.728 204.352 259.436 371.644 259.436zM896 256c-41.644 0-128.008-23.206-171.77-35.778-5.804 61.224-84.25 82.896-165.334 99.362-36.98 7.5-64.52 20.77-91.146 33.626-32.834 15.832-63.834 30.79-105.084 30.79-47.25 0-90.278-9.656-114.57-16.342-6.424 22.338-24.656 40.348-48.826 45.174l-173.75 34.752c-6.292 1.188-12.77-0.376-17.708-4.416-4.936-4.064-7.812-10.106-7.812-16.502v-341.334c0-11.79 9.542-21.332 21.334-21.332h133.666c26.33 0 48.768 16.762 58.424 40.294 47.75-22.766 268.684-125.628 362.576-125.628 82.75 0 253.062 83.73 365.75 139.126 29.416 14.458 53.73 26.416 69.5 33.334 7.75 3.416 12.75 11.084 12.75 19.542 0 50.248-52.624 85.332-128 85.332zM207.834 347.062l-31.73-222.082c-1.48-10.438-10.562-18.312-21.104-18.312h-112.334v293.98l148.23-29.648c11.104-2.23 18.542-12.73 16.938-23.938zM922.916 156.084c-102.5-50.396-274.084-134.75-346.916-134.75-77.604 0-281.376 90.854-353.334 125.854-0.086 0.042-0.18 0.026-0.266 0.068l25.114 175.796c15.518 4.86 63.026 18.282 115.152 18.282 31.48 0 55.792-11.73 86.562-26.562 27.626-13.334 58.958-28.438 101.188-37.020 92.708-18.792 132.25-38.062 132.25-64.416 0-5.208-1.584-8.416-5.646-11.438-13.52-10.126-66.458-27.166-265.626 31.896-11.27 3.354-23.166-3.126-26.52-14.396-3.354-11.292 3.104-23.166 14.396-26.52 98.25-29.126 173.396-43.646 226.646-43.646 34.73 0 60.146 6.166 76.626 18.48 1.422 1.060 2.46 2.36 3.756 3.502 1.33 0.146 2.644-0.016 3.974 0.394 37.728 11.6 144.604 41.726 185.728 41.726 34.792 0 71.396-10.584 82.188-30.416-14.896-7.002-33.75-16.272-55.272-26.834z" />
</font>
</defs>
</svg>
